<svg xmlns="http://www.w3.org/2000/svg" width="13.273" height="17.942" viewBox="0 0 13.273 17.942">
  <g id="XMLID_1_" transform="translate(0 -0.181)">
    <path id="Path_495" data-name="Path 495" d="M13.792,20.49a.4.4,0,1,1-.792,0V9.4a.421.421,0,0,1,.143-.309.416.416,0,0,1,.333-.079l.317.063V20.49Z" transform="translate(-0.519 -2.764)" fill="#fff"/>
    <path id="Path_496" data-name="Path 496" d="M12.273,23v.4a.392.392,0,0,0,.4.4H9.5a.392.392,0,0,0,.4-.4V23Z" transform="translate(0.208 -5.67)" fill="#fff"/>
    <path id="Path_497" data-name="Path 497" d="M9.981,5a.4.4,0,0,1,0,.792H8.4A.4.4,0,1,1,8.4,5Z" transform="translate(-0.075 -1.198)" fill="#fff"/>
    <path id="Path_498" data-name="Path 498" d="M10.377,8.4a.392.392,0,0,1-.4.4H8.4A.4.4,0,1,1,8.4,8H9.981A.392.392,0,0,1,10.377,8.4Z" transform="translate(-0.075 -1.943)" fill="#fff"/>
    <path id="Path_499" data-name="Path 499" d="M9.981,11a.4.4,0,0,1,0,.792H8.4A.4.4,0,0,1,8.4,11Z" transform="translate(-0.075 -2.688)" fill="#fff"/>
    <path id="Path_500" data-name="Path 500" d="M9.981,14a.4.4,0,1,1,0,.792H8.4A.4.4,0,1,1,8.4,14Z" transform="translate(-0.075 -3.434)" fill="#fff"/>
    <path id="Path_501" data-name="Path 501" d="M5.377,14.4a.392.392,0,0,1-.4.4H3.4A.4.4,0,1,1,3.4,14H4.981A.392.392,0,0,1,5.377,14.4Z" transform="translate(-0.028 -3.434)" fill="#fff"/>
    <path id="Path_502" data-name="Path 502" d="M4.981,5a.4.4,0,0,1,0,.792H3.4A.4.4,0,0,1,3.4,5Z" transform="translate(-0.028 -1.198)" fill="#fff"/>
    <path id="Path_503" data-name="Path 503" d="M4.981,8a.4.4,0,1,1,0,.792H3.4A.4.4,0,0,1,3.4,8Z" transform="translate(-0.028 -1.943)" fill="#fff"/>
    <path id="Path_504" data-name="Path 504" d="M4.981,11a.4.4,0,0,1,0,.792H3.4A.4.4,0,0,1,3.4,11Z" transform="translate(-0.028 -2.688)" fill="#fff"/>
    <path id="Path_505" data-name="Path 505" d="M8.831,18.189a.448.448,0,0,0-.483-.4h-2.9a.442.442,0,0,0-.483.4v3.566H4V18.189A1.337,1.337,0,0,1,5.449,17h2.9A1.337,1.337,0,0,1,9.8,18.189v3.566H8.831Z" transform="translate(0.26 -4.425)" fill="#fff"/>
    <path id="Path_506" data-name="Path 506" d="M5.068,23H10.41v.4c0,.222-.235.4-.534.4H4.534c-.3,0-.534-.174-.534-.4V23Z" transform="translate(-0.227 -5.67)" fill="#fff"/>
    <path id="Path_507" data-name="Path 507" d="M1.659.2l10.42,1.258a1.24,1.24,0,0,1,1.195,1.115V6.891l-.379-.06a.6.6,0,0,0-.4.075.373.373,0,0,0-.171.294V2.568a.418.418,0,0,0-.4-.377L1.507.941A.327.327,0,0,0,1.422.933a.519.519,0,0,0-.3.09.337.337,0,0,0-.171.286V16.992a.436.436,0,0,0,.474.377h2.37v.377a.43.43,0,0,0,.474.377H1.422A1.3,1.3,0,0,1,0,16.992V1.31A1.035,1.035,0,0,1,.5.451,1.693,1.693,0,0,1,1.659.2Z" transform="translate(0 0)" fill="#fff"/>
  </g>
</svg>
