<svg xmlns="http://www.w3.org/2000/svg" width="16.498" height="18.001" viewBox="0 0 16.498 18.001">
  <g id="Icon_ionic-logo-android" data-name="Icon ionic-logo-android" transform="translate(-5.625 -4.497)">
    <g id="Group_161" data-name="Group 161" transform="translate(5.625 9.748)">
      <path id="Path_211" data-name="Path 211" d="M10.125,17.081v4.2a.609.609,0,0,0,.534.656H12v2.437a1.125,1.125,0,1,0,2.25,0V21.937h2.3v2.437a1.12,1.12,0,0,0,.412.872,1.047,1.047,0,0,0,.689.253h.023A1.122,1.122,0,0,0,18.8,24.374V21.937H20.09a.6.6,0,0,0,.534-.651V13.5h-10.5Z" transform="translate(-7.125 -12.75)" fill="#fff"/>
      <path id="Path_212" data-name="Path 212" d="M28.125,12.375A1.122,1.122,0,0,0,27,13.5V18a1.125,1.125,0,0,0,2.25,0V13.5A1.122,1.122,0,0,0,28.125,12.375Z" transform="translate(-12.751 -12.375)" fill="#fff"/>
      <path id="Path_213" data-name="Path 213" d="M6.75,12.375A1.122,1.122,0,0,0,5.625,13.5V18a1.125,1.125,0,0,0,2.25,0V13.5A1.122,1.122,0,0,0,6.75,12.375Z" transform="translate(-5.625 -12.375)" fill="#fff"/>
    </g>
    <path id="Path_214" data-name="Path 214" d="M17.962,5.675l.867-1.026c.019-.023-.009-.075-.061-.117s-.112-.047-.127-.019l-.9,1.069a6.367,6.367,0,0,0-2.372-.412,6.421,6.421,0,0,0-2.381.4L12.1,4.518c-.019-.023-.075-.019-.127.019s-.08.084-.061.117l.858,1.012a4.75,4.75,0,0,0-2.643,4.087h10.48A4.723,4.723,0,0,0,17.962,5.675ZM13.068,8.009a.623.623,0,1,1,.633-.623A.631.631,0,0,1,13.068,8.009Zm4.612,0a.623.623,0,1,1,.633-.623A.631.631,0,0,1,17.681,8.009Z" transform="translate(-1.5)" fill="#fff"/>
  </g>
</svg>
