<svg xmlns="http://www.w3.org/2000/svg" width="51.112" height="57.081" viewBox="0 0 51.112 57.081">
  <path id="Subtraction_2" data-name="Subtraction 2" d="M-413.824-197.4a7.634,7.634,0,0,1-3.832-1.032l-2.5-1.454c.208-13.133.315-20.971.315-23.3.019-.139.038-.256.057-.361v-1.032a1.309,1.309,0,0,1,1.308-1.308h7.866A2.619,2.619,0,0,1-408-223.27a2.617,2.617,0,0,1-2.615,2.614h-5.678l.449.721a8.233,8.233,0,0,0,7.411,4.27,6.461,6.461,0,0,0,1.351-.132,7.036,7.036,0,0,0,5.76-6.8,8.286,8.286,0,0,0-3.34-6.924c.019,0,1.738-.4,1.965-3.76a6.086,6.086,0,0,0-1.535-4.62,7.433,7.433,0,0,0-5.033-1.912H-424.7v37.278l-10.81-6.284a7.743,7.743,0,0,1-3.832-6.691l.024-20.835a7.743,7.743,0,0,1,3.823-6.667l17.91-10.439a7.631,7.631,0,0,1,3.839-1.032,7.632,7.632,0,0,1,3.831,1.032l17.852,10.378a7.743,7.743,0,0,1,3.833,6.691l-.024,20.835a7.743,7.743,0,0,1-3.823,6.667l-17.908,10.439a7.635,7.635,0,0,1-3.837,1.039Zm3.214-32.708h-7.867a1.309,1.309,0,0,1-1.308-1.308v-2.615a1.309,1.309,0,0,1,1.308-1.308h7.867a2.619,2.619,0,0,1,2.615,2.615,2.619,2.619,0,0,1-2.615,2.615Z" transform="translate(439.344 254.483)" fill="#3e8bff"/>
</svg>
