<svg xmlns="http://www.w3.org/2000/svg" width="36.495" height="42.578" viewBox="0 0 36.495 42.578">
  <g id="file-earmark-text-fill" transform="translate(-4.5 -2.25)">
    <path id="Path_383" data-name="Path 383" d="M4.5,8.333A6.083,6.083,0,0,1,10.583,2.25h16.1a3.041,3.041,0,0,1,2.151.891L40.1,14.415A3.041,3.041,0,0,1,41,16.566v22.18a6.083,6.083,0,0,1-6.083,6.083H10.583A6.083,6.083,0,0,1,4.5,38.745Zm21.289,6.083V5.291L37.954,17.456H28.83A3.041,3.041,0,0,1,25.789,14.415ZM12.1,23.539a1.521,1.521,0,1,0,0,3.041H33.392a1.521,1.521,0,0,0,0-3.041Zm-1.521,7.6A1.521,1.521,0,0,1,12.1,29.621H33.392a1.521,1.521,0,0,1,0,3.041H12.1A1.521,1.521,0,0,1,10.583,31.142Zm0,6.083A1.521,1.521,0,0,1,12.1,35.7H24.268a1.521,1.521,0,0,1,0,3.041H12.1A1.521,1.521,0,0,1,10.583,37.224Z" transform="translate(0 0)" fill="#3e8bff" fill-rule="evenodd"/>
  </g>
</svg>
