<svg xmlns="http://www.w3.org/2000/svg" width="39.617" height="39.315" viewBox="0 0 39.617 39.315">
  <g id="chat-bubble-solid-badged" transform="translate(-2 -0.75)">
    <path id="Path_384" data-name="Path 384" d="M35.614,15.405a8.955,8.955,0,0,1-5.222-1.68,1.2,1.2,0,0,1-1.117.78H13.141a1.2,1.2,0,1,1,0-2.4H28.651A8.956,8.956,0,0,1,27.211,3.34a21.609,21.609,0,0,0-6-.84C10.62,2.5,2,10.039,2,19.307s8.62,16.807,19.208,16.807a21.609,21.609,0,0,0,5.858-.816l6.639,4.226a1.2,1.2,0,0,0,1.849-1.008V30.436a15.607,15.607,0,0,0,4.8-11.129,14.814,14.814,0,0,0-.816-4.8A8.956,8.956,0,0,1,35.614,15.405Zm-9.9,11.1h-9a1.2,1.2,0,0,1,0-2.4h9a1.2,1.2,0,0,1,0,2.4Zm3.9-6H12.8a1.2,1.2,0,0,1,0-2.4H29.612a1.2,1.2,0,0,1,0,2.4Z" transform="translate(0 0.351)" fill="#3e8bff"/>
    <path id="Path_385" data-name="Path 385" d="M37.005,6.753a6,6,0,1,1-6-6,6,6,0,0,1,6,6Z" transform="translate(4.612 0)" fill="#3e8bff"/>
  </g>
</svg>
