<svg xmlns="http://www.w3.org/2000/svg" width="14.817" height="17.335" viewBox="0 0 14.817 17.335">
  <path id="Icon_awesome-apple" data-name="Icon awesome-apple" d="M11.738,10.867a3.4,3.4,0,0,1,1.82-3.087,3.911,3.911,0,0,0-3.084-1.624c-1.292-.1-2.7.754-3.222.754-.546,0-1.8-.717-2.781-.717C2.44,6.225.281,7.813.281,11.042A9.074,9.074,0,0,0,.805,14c.466,1.336,2.148,4.613,3.9,4.558.917-.022,1.565-.652,2.76-.652,1.158,0,1.758.652,2.781.652,1.769-.025,3.291-3,3.735-4.343a3.609,3.609,0,0,1-2.246-3.346ZM9.677,4.889a3.429,3.429,0,0,0,.874-2.639A3.86,3.86,0,0,0,8.079,3.521a3.483,3.483,0,0,0-.932,2.618A3.058,3.058,0,0,0,9.677,4.889Z" transform="translate(0.219 -1.722)" fill="#fff" stroke="#fff" stroke-width="1"/>
</svg>
