<svg xmlns="http://www.w3.org/2000/svg" width="25.119" height="30.849" viewBox="0 0 25.119 30.849">
  <path id="Icon_metro-apple" data-name="Icon metro-apple" d="M26.415,18.319a6.979,6.979,0,0,1,3.33-5.873A7.2,7.2,0,0,0,24.1,9.389C21.7,9.146,19.417,10.8,18.2,10.8s-3.1-1.378-5.09-1.342a7.547,7.547,0,0,0-6.381,3.868c-2.72,4.721-.7,11.714,1.955,15.543,1.3,1.874,2.841,3.979,4.869,3.9,1.953-.078,2.692-1.264,5.054-1.264s3.025,1.264,5.093,1.225c2.1-.039,3.434-1.91,4.72-3.79a17,17,0,0,0,2.137-4.387,6.813,6.813,0,0,1-4.139-6.24ZM22.531,6.854a6.8,6.8,0,0,0,1.605-4.926,6.916,6.916,0,0,0-4.543,2.336,6.467,6.467,0,0,0-1.638,4.773A5.721,5.721,0,0,0,22.531,6.854Z" transform="translate(-5.436 -1.928)" fill="#a2a2a2"/>
</svg>
