<svg xmlns="http://www.w3.org/2000/svg" width="47.356" height="46.257" viewBox="0 0 47.356 46.257">
  <g id="noun_chat_2244352" transform="translate(-5 -6.044)">
    <path id="Path_164" data-name="Path 164" d="M42.028,32.817a3.311,3.311,0,0,0,3.278-3.336V9.38a3.311,3.311,0,0,0-3.278-3.336H8.278A3.311,3.311,0,0,0,5,9.38v20.1a3.311,3.311,0,0,0,3.278,3.336h4.842l1.34,15.713,9.929-15.713ZM16.042,42.041l-.968-11.352h-6.8A1.181,1.181,0,0,1,7.128,29.48V9.38A1.181,1.181,0,0,1,8.278,8.172h33.75A1.181,1.181,0,0,1,43.177,9.38v20.1a1.181,1.181,0,0,1-1.149,1.208H23.214Z" transform="translate(0 0)" fill="#fff"/>
    <path id="Path_165" data-name="Path 165" d="M65.346,30.842H63.185V32.97h2.161a.657.657,0,0,1,.632.678V49.055a.657.657,0,0,1-.632.678H59.908l-.729,8.555-6.386-8.555H39.476a.558.558,0,0,1-.074-.016l-1.16,1.835a2.692,2.692,0,0,0,1.233.309H51.725l9.1,12.19,1.039-12.19h3.483a2.786,2.786,0,0,0,2.761-2.806V33.648A2.786,2.786,0,0,0,65.346,30.842Z" transform="translate(-15.751 -11.75)" fill="#fff"/>
    <path id="Path_166" data-name="Path 166" d="M20.761,24.679a3.581,3.581,0,1,0,3.581,3.581A3.581,3.581,0,0,0,20.761,24.679Zm0,5.321A1.74,1.74,0,1,1,22.5,28.26,1.74,1.74,0,0,1,20.761,30Z" transform="translate(-5.771 -8.83)" fill="#fff"/>
    <path id="Path_167" data-name="Path 167" d="M40.076,24.679a3.581,3.581,0,1,0,3.581,3.581A3.581,3.581,0,0,0,40.076,24.679Zm0,5.321a1.74,1.74,0,1,1,1.739-1.74A1.74,1.74,0,0,1,40.076,30Z" transform="translate(-14.923 -8.83)" fill="#fff"/>
    <path id="Path_168" data-name="Path 168" d="M59.39,24.679a3.581,3.581,0,1,0,3.581,3.581,3.581,3.581,0,0,0-3.581-3.581Zm0,5.321a1.74,1.74,0,1,1,1.739-1.74A1.74,1.74,0,0,1,59.39,30Z" transform="translate(-24.075 -8.83)" fill="#fff"/>
  </g>
</svg>
