<svg xmlns="http://www.w3.org/2000/svg" width="60.466" height="38.298" viewBox="0 0 60.466 38.298">
  <g id="noun_games_1279363" transform="translate(-11.501 -30.748)">
    <g id="Group_95" data-name="Group 95" transform="translate(11.501 30.748)">
      <path id="Path_132" data-name="Path 132" d="M98.108,37.926a8.494,8.494,0,0,0-8.422-7.178H83.245a1.152,1.152,0,0,0,0,2.3h6.442a6.2,6.2,0,0,1,6.147,5.24l3.71,23.08a4.635,4.635,0,0,1-4.575,5.371H90.95a1.152,1.152,0,0,0,0,2.3h4.019a6.938,6.938,0,0,0,6.849-8.04Z" transform="translate(-41.441 -30.748)" fill="#fff"/>
      <path id="Path_133" data-name="Path 133" d="M64.332,75.337a1.056,1.056,0,0,0-.069-.083,6.948,6.948,0,0,0-5.146-2.286H45.13a6.95,6.95,0,0,0-5.147,2.286c-.028.031-.054.063-.079.1l-3.688,5.1a1.152,1.152,0,0,0,1.867,1.35l3.65-5.049a4.639,4.639,0,0,1,3.4-1.483H59.117a4.639,4.639,0,0,1,3.4,1.489l3.654,4.9a1.152,1.152,0,1,0,1.846-1.378Z" transform="translate(-21.891 -48.654)" fill="#fff"/>
      <path id="Path_134" data-name="Path 134" d="M91.439,52.225a5.455,5.455,0,1,0-5.455,5.348A5.408,5.408,0,0,0,91.439,52.225Zm-8.6,0a3.153,3.153,0,1,1,3.151,3.044A3.1,3.1,0,0,1,82.834,52.225Z" transform="translate(-40.778 -37.589)" fill="#fff"/>
      <path id="Path_135" data-name="Path 135" d="M33.982,57.572a1.152,1.152,0,0,0,1.152-1.152V53.376h3.151a1.152,1.152,0,0,0,0-2.3H35.134V48.029a1.152,1.152,0,0,0-2.3,0v3.044H29.68a1.152,1.152,0,0,0,0,2.3H32.83V56.42A1.151,1.151,0,0,0,33.982,57.572Z" transform="translate(-18.723 -37.589)" fill="#fff"/>
      <path id="Path_136" data-name="Path 136" d="M22.458,66.742H18.439a4.635,4.635,0,0,1-4.575-5.371l3.71-23.08a6.2,6.2,0,0,1,6.147-5.24h6.442a1.152,1.152,0,1,0,0-2.3H23.721A8.495,8.495,0,0,0,15.3,37.926l-3.71,23.08a6.939,6.939,0,0,0,6.85,8.04h4.019a1.152,1.152,0,1,0,0-2.3Z" transform="translate(-11.501 -30.748)" fill="#fff"/>
      <path id="Path_137" data-name="Path 137" d="M57.609,30.748A1.152,1.152,0,0,0,56.457,31.9v3.478H50.083a1.152,1.152,0,1,0,0,2.3H65.136a1.152,1.152,0,1,0,0-2.3H58.761V31.9A1.152,1.152,0,0,0,57.609,30.748Z" transform="translate(-27.376 -30.748)" fill="#fff"/>
    </g>
  </g>
</svg>
