<svg xmlns="http://www.w3.org/2000/svg" width="20.077" height="16.609" viewBox="0 0 20.077 16.609">
  <g id="Icon_feather-users" data-name="Icon feather-users" transform="translate(-1 -4)">
    <path id="Path_78" data-name="Path 78" d="M15.374,27.7V25.969A3.469,3.469,0,0,0,11.906,22.5H4.969A3.469,3.469,0,0,0,1.5,25.969V27.7" transform="translate(0 -7.594)" fill="none" stroke="#fff" stroke-linecap="round" stroke-linejoin="round" stroke-width="1"/>
    <path id="Path_79" data-name="Path 79" d="M14.437,7.969A3.469,3.469,0,1,1,10.969,4.5,3.469,3.469,0,0,1,14.437,7.969Z" transform="translate(-2.531)" fill="none" stroke="#fff" stroke-linecap="round" stroke-linejoin="round" stroke-width="1"/>
    <path id="Path_80" data-name="Path 80" d="M32.6,27.785V26.051A3.469,3.469,0,0,0,30,22.7" transform="translate(-12.024 -7.676)" fill="none" stroke="#fff" stroke-linecap="round" stroke-linejoin="round" stroke-width="1"/>
    <path id="Path_81" data-name="Path 81" d="M24,4.7a3.469,3.469,0,0,1,0,6.72" transform="translate(-9.493 -0.082)" fill="none" stroke="#fff" stroke-linecap="round" stroke-linejoin="round" stroke-width="1"/>
  </g>
</svg>
