<svg xmlns="http://www.w3.org/2000/svg" width="52.299" height="42.014" viewBox="0 0 52.299 42.014">
  <g id="noun_devices_169626" transform="translate(-7.597 -15.936)">
    <path id="Path_195" data-name="Path 195" d="M43,48.415a1.166,1.166,0,0,1-1.166,1.166H31.75v5.457h6.785a1.166,1.166,0,0,1,0,2.332H22.87a1.166,1.166,0,1,1,0-2.332h6.547V49.581H13.985A6.4,6.4,0,0,1,7.6,43.193V22.324a6.4,6.4,0,0,1,6.388-6.388h33.2a6.4,6.4,0,0,1,6.388,6.388v9.126a1.166,1.166,0,1,1-2.332,0V22.324a4.06,4.06,0,0,0-4.055-4.055h-33.2a4.06,4.06,0,0,0-4.055,4.055V43.193a4.06,4.06,0,0,0,4.055,4.055h27.85A1.166,1.166,0,0,1,43,48.415Zm16.9-9.321V53.561a4.394,4.394,0,0,1-4.389,4.389H49.3a4.394,4.394,0,0,1-4.389-4.389V39.093A4.394,4.394,0,0,1,49.3,34.7h6.206A4.395,4.395,0,0,1,59.9,39.093Zm-2.332,0a2.059,2.059,0,0,0-2.057-2.057H49.3a2.059,2.059,0,0,0-2.057,2.057V53.561A2.059,2.059,0,0,0,49.3,55.618h6.206a2.059,2.059,0,0,0,2.057-2.057Z" fill="#fff"/>
  </g>
</svg>
