<svg xmlns="http://www.w3.org/2000/svg" width="18.527" height="18.527" viewBox="0 0 18.527 18.527">
  <path id="Icon_awesome-facebook-square" data-name="Icon awesome-facebook-square" d="M16.542,2.25H1.985A1.985,1.985,0,0,0,0,4.235V18.792a1.985,1.985,0,0,0,1.985,1.985H7.661v-6.3H5.056V11.514H7.661V9.254a3.619,3.619,0,0,1,3.874-3.99,15.784,15.784,0,0,1,2.3.2V7.987H12.538a1.482,1.482,0,0,0-1.672,1.6v1.925h2.844l-.455,2.965h-2.39v6.3h5.676a1.985,1.985,0,0,0,1.985-1.985V4.235A1.985,1.985,0,0,0,16.542,2.25Z" transform="translate(0 -2.25)" fill="#fff"/>
</svg>
