<svg xmlns="http://www.w3.org/2000/svg" width="21.738" height="17.358" viewBox="0 0 21.738 17.358">
  <g id="noun_forum_2548168" transform="translate(-7 -12)">
    <g id="Group_46" data-name="Group 46" transform="translate(7 12)">
      <path id="Path_75" data-name="Path 75" d="M14.085,12a2.08,2.08,0,0,0-1.738.878.218.218,0,0,0,.083.318.272.272,0,0,0,.352-.075,1.556,1.556,0,0,1,1.3-.664H26.708a1.446,1.446,0,0,1,1.525,1.378v6.838a1.446,1.446,0,0,1-1.525,1.378h-.75a.242.242,0,0,0-.253.228v3.555l-.64-.571a.268.268,0,0,0-.253-.079.242.242,0,0,0-.19.171.217.217,0,0,0,.088.229l1.066.971a.272.272,0,0,0,.279.052.229.229,0,0,0,.155-.216V22.507h.5a1.94,1.94,0,0,0,2.03-1.834V13.834A1.94,1.94,0,0,0,26.708,12ZM9.03,14.741A1.94,1.94,0,0,0,7,16.575v6.838a1.94,1.94,0,0,0,2.03,1.834h.5v3.883a.23.23,0,0,0,.159.21.272.272,0,0,0,.276-.053l4.471-4.04h7.22a1.94,1.94,0,0,0,2.03-1.834V16.575a1.94,1.94,0,0,0-2.03-1.834Zm0,.457H21.653a1.446,1.446,0,0,1,1.525,1.378v6.838a1.446,1.446,0,0,1-1.525,1.378H14.33a.268.268,0,0,0-.182.064l-4.115,3.719V25.02a.242.242,0,0,0-.253-.228H9.03a1.446,1.446,0,0,1-1.525-1.378V16.575A1.446,1.446,0,0,1,9.03,15.2ZM11.8,19.452a.545.545,0,1,0,0,1.085.545.545,0,1,0,0-1.085Zm3.539,0a.545.545,0,1,0,.6.542A.576.576,0,0,0,15.341,19.452Zm3.539,0a.545.545,0,1,0,0,1.085.545.545,0,1,0,0-1.085Z" transform="translate(-7 -12)" fill="#fff"/>
    </g>
  </g>
</svg>
