<svg xmlns="http://www.w3.org/2000/svg" width="20.451" height="17.55" viewBox="0 0 20.451 17.55">
  <g id="noun_Battle_3108001" transform="translate(-6.368 -8.87)">
    <g id="Group_408" data-name="Group 408" transform="translate(6.368 8.87)">
      <path id="Path_482" data-name="Path 482" d="M6.45,31.515a.3.3,0,0,0,0,.412l2.459,2.459a.3.3,0,0,0,.412,0L12.806,30.9,9.935,28.03Z" transform="translate(-6.368 -16.919)" fill="#fff"/>
      <path id="Path_483" data-name="Path 483" d="M16.611,27.351l-3.277-3.277-.818-.818a.869.869,0,0,0-1.229,1.229l.818.818,3.282,3.282.818.818a.869.869,0,1,0,1.229-1.229Z" transform="translate(-8.328 -14.808)" fill="#fff"/>
      <path id="Path_484" data-name="Path 484" d="M15.824,16.194,14.09,17.928,16.96,20.8l1.734-1.734L20.428,20.8,23.3,17.928l-1.734-1.734,3.74-3.74.713-3.584-3.584.713-3.74,3.74-3.74-3.74L11.37,8.87l.713,3.584Z" transform="translate(-8.469 -8.87)" fill="#fff"/>
      <path id="Path_485" data-name="Path 485" d="M36.886,31.515,33.4,28.03,30.53,30.9l3.485,3.485a.3.3,0,0,0,.412,0l2.459-2.459A.3.3,0,0,0,36.886,31.515Z" transform="translate(-16.518 -16.919)" fill="#fff"/>
      <path id="Path_486" data-name="Path 486" d="M31.9,24.477a.869.869,0,0,0-1.229-1.229l-.823.823-3.282,3.282-.818.818A.869.869,0,0,0,26.977,29.4l.818-.818L31.077,25.3Z" transform="translate(-14.403 -14.804)" fill="#fff"/>
    </g>
  </g>
</svg>
