<svg xmlns="http://www.w3.org/2000/svg" width="20.572" height="16.318" viewBox="0 0 20.572 16.318">
  <g id="noun_Game_2007259" transform="translate(-2.498 -12.3)">
    <g id="Group_410" data-name="Group 410" transform="translate(2.498 12.3)">
      <path id="Path_515" data-name="Path 515" d="M22.574,21.071c-.52-2.555-1.624-5.977-4.981-6.064a10.685,10.685,0,0,0-2.382.238,11.165,11.165,0,0,1-1.906.217V12.82a.52.52,0,1,0-1.04,0v2.642a13.87,13.87,0,0,1-1.906-.217,11.986,11.986,0,0,0-2.382-.238C4.621,15.072,3.516,18.494,3,21.071c-.585,2.837-.78,5,.108,6.324a2.843,2.843,0,0,0,1.927,1.169c2.209.39,4.31-1.343,5.782-4.721h3.941c1.321,3.075,3.162,4.764,5.154,4.764a5.708,5.708,0,0,0,.606-.043,2.749,2.749,0,0,0,1.927-1.169C23.354,26.074,23.159,23.908,22.574,21.071ZM21.6,26.832a1.8,1.8,0,0,1-1.256.736c-2.426.411-4.05-2.729-4.635-4.093a1.036,1.036,0,0,0-.953-.628H10.814a1.036,1.036,0,0,0-.953.628C9.277,24.839,7.653,28,5.227,27.568a1.8,1.8,0,0,1-1.256-.736c-.736-1.083-.411-3.313.043-5.544C4.751,17.714,5.985,16.112,8,16.068h.152a9.637,9.637,0,0,1,1.992.217,13.341,13.341,0,0,0,5.241,0,11.4,11.4,0,0,1,2.144-.217c2.036.043,3.27,1.668,3.985,5.219C22.011,23.518,22.336,25.749,21.6,26.832Z" transform="translate(-2.498 -12.3)" fill="#fff"/>
      <path id="Path_516" data-name="Path 516" d="M24.138,41H23.1V39.96a.263.263,0,0,0-.26-.26h-.78a.263.263,0,0,0-.26.26V41H20.76a.263.263,0,0,0-.26.26v.78a.263.263,0,0,0,.26.26H21.8v1.04a.263.263,0,0,0,.26.26h.78a.263.263,0,0,0,.26-.26V42.3h1.04a.263.263,0,0,0,.26-.26v-.78A.263.263,0,0,0,24.138,41Z" transform="translate(-16.601 -33.766)" fill="#fff"/>
      <path id="Path_517" data-name="Path 517" d="M67.493,39a.693.693,0,1,0,.693.693A.7.7,0,0,0,67.493,39Z" transform="translate(-52.874 -33.218)" fill="#fff"/>
      <path id="Path_518" data-name="Path 518" d="M73.893,45.5a.693.693,0,1,0,.693.693A.684.684,0,0,0,73.893,45.5Z" transform="translate(-57.888 -38.31)" fill="#fff"/>
      <path id="Path_519" data-name="Path 519" d="M60.993,45.5a.693.693,0,1,0,.693.693A.7.7,0,0,0,60.993,45.5Z" transform="translate(-47.782 -38.31)" fill="#fff"/>
      <path id="Path_520" data-name="Path 520" d="M67.393,52a.693.693,0,1,0,.693.693A.684.684,0,0,0,67.393,52Z" transform="translate(-52.796 -43.402)" fill="#fff"/>
    </g>
  </g>
</svg>
