<svg xmlns="http://www.w3.org/2000/svg" width="20.5" height="16.816" viewBox="0 0 20.5 16.816">
  <g id="puzzle_1_" data-name="puzzle (1)" transform="translate(0 -46)">
    <g id="Group_181" data-name="Group 181" transform="translate(0 46)">
      <path id="Path_252" data-name="Path 252" d="M9.049,49.6H7.038a4.209,4.209,0,0,0,.209-1.2,2.4,2.4,0,0,0-4.8,0,4.211,4.211,0,0,0,.209,1.2H.6a.6.6,0,0,0-.6.6v8.408a.6.6,0,0,0,.6.6H9.049a.6.6,0,0,0,.6-.6v-2.9a.6.6,0,0,0-.869-.537,3.984,3.984,0,0,1-1.534.432,1.2,1.2,0,0,1,0-2.4,3.984,3.984,0,0,1,1.534.432.6.6,0,0,0,.869-.537V50.2A.6.6,0,0,0,9.049,49.6Zm-.6,2.612a4.208,4.208,0,0,0-1.2-.21,2.4,2.4,0,0,0,0,4.8,4.21,4.21,0,0,0,1.2-.21v1.411H1.2V50.8H3.538a.6.6,0,0,0,.538-.869A3.984,3.984,0,0,1,3.644,48.4a1.2,1.2,0,0,1,2.4,0,3.984,3.984,0,0,1-.432,1.534.6.6,0,0,0,.538.869h2.3ZM19.9,49.6H11.451a.6.6,0,0,0-.6.6v2.9a.6.6,0,0,0,.869.537,3.984,3.984,0,0,1,1.534-.432,1.2,1.2,0,1,1,0,2.4,3.984,3.984,0,0,1-1.534-.432.6.6,0,0,0-.869.537v2.9a.6.6,0,0,0,.6.6h2.011a4.216,4.216,0,0,0-.209,1.2,2.4,2.4,0,1,0,4.8,0,4.211,4.211,0,0,0-.209-1.2H19.9a.6.6,0,0,0,.6-.6V50.2A.6.6,0,0,0,19.9,49.6Zm-.6,8.408H16.962a.6.6,0,0,0-.538.869,3.984,3.984,0,0,1,.432,1.534,1.2,1.2,0,1,1-2.4,0,3.984,3.984,0,0,1,.432-1.534.6.6,0,0,0-.538-.869h-2.3V56.6a4.208,4.208,0,0,0,1.2.21,2.4,2.4,0,0,0,0-4.8,4.21,4.21,0,0,0-1.2.21V50.8H19.3Z" transform="translate(0 -46)" fill="#fff"/>
    </g>
  </g>
</svg>
