<svg xmlns="http://www.w3.org/2000/svg" width="19.762" height="20.066" viewBox="0 0 19.762 20.066">
  <g id="noun_dragon_2939295" transform="translate(-11.093 -8.257)">
    <g id="Group_406" data-name="Group 406" transform="translate(11.093 8.257)">
      <path id="Path_479" data-name="Path 479" d="M12.483,22.578c-.19.888,6.027,6.788,6.534,5.583.444-1.142.317-3.68,1.586-4.948,1.205-1.269,2.094-.508,2.728.444a1.337,1.337,0,0,1-.508,2.22c1.967.508,3.87-.063,4.377-1.713.127-.381-.761.063-1.4-.381l.444-1.142-1.205.381c-.127-.19-.254-.381-.444-.634l.571-1.269-1.142.317c-.571-.888-.952-1.84-.7-2.094.381-.444.761-.444,1.4-.063l-.19,1.142.952-.571.571.381-.127,1.205,1.015-.634c.19.127.444.317.634.444l-.19,1.4,1.015-.571c.444.444.761.127.444,1.332s2.982-1.332,1.713-2.411c-.888-.761,0-2.347-.825-3.553,0,0-.317,2.22-1.015,1.586-1.776-1.523-1.015-2.347-1.523-3.3a6.327,6.327,0,0,0-2.03-2.538,7.818,7.818,0,0,0-4.124-2.22A3.32,3.32,0,0,1,18.7,8.748c-.444-.825-1.142-.508-.952.19.317.634.888,2.728,2.728,3.172a11.838,11.838,0,0,1,1.4.444c-.825.063-1.649.127-2.474.254a7.818,7.818,0,0,0-4.568-1.586A3.429,3.429,0,0,1,12.1,9.509c-.571-.761-1.205-.317-.952.317.444.571,1.4,2.538,3.3,2.665a6.325,6.325,0,0,1,2.855.7,5.247,5.247,0,0,0-1.015,1.205c.761,0,1.84,0,1.459.634-.317.634-1.523.761-2.538.825-.19.317-.381.7-.571,1.078.825,0,2.03-.063,1.586.634s-1.332.825-2.347.888c-.127.381-.317.761-.444,1.078.825.063,1.9.19,1.459.888a3.247,3.247,0,0,1-2.157.888A5.584,5.584,0,0,0,12.483,22.578Zm11.8-6.408c.571.127.825,1.015.825,1.4,0,.444-.381.317-.952.063-.508-.19-.952-.508-.952-.888C23.2,16.3,23.649,16.044,24.283,16.17Zm-4.187,0c.571,0,.888.317.888.761s-.381.571-.888.7A8.173,8.173,0,0,1,17.749,17c-.444-.19-.634-.381,0-.381A15.164,15.164,0,0,0,20.1,16.17Zm-1.332,4.758c.508-.19,1.015-.063,1.142.317.19.444-.063.761-.571,1.015a6.045,6.045,0,0,1-2.347.381c-.508,0-.7-.063-.19-.317A13.9,13.9,0,0,0,18.764,20.928Zm.317-2.6a.84.84,0,0,1,1.015.634c.063.444-.317.634-.825.825a6.913,6.913,0,0,1-2.411-.254c-.444-.127-.634-.254-.063-.381A11.477,11.477,0,0,0,19.081,18.327Z" transform="translate(-11.093 -8.257)" fill="#fff" fill-rule="evenodd"/>
    </g>
  </g>
</svg>
