<svg xmlns="http://www.w3.org/2000/svg" width="18.903" height="19.026" viewBox="0 0 18.903 19.026">
  <g id="noun_splash_1174687" transform="translate(0.325 0.747)">
    <g id="Group_407" data-name="Group 407" transform="translate(0.183 -0.223)">
      <path id="Path_481" data-name="Path 481" d="M9.931,1.459c.879,4-2.442,3.809-3.125,1.953C6.415,2.143,7.489.287,5.927.287a.824.824,0,0,0-.781,1.172c.586,1.074.977,2.051.488,2.734-1.758,2.344-3.613,0-4.59-.1s-1.27,1.074-.1,1.27a7.511,7.511,0,0,1,2.344.977c4.1,2.246.1,5.567-1.367,7.813C.653,16.3,2.8,16.206,3.29,15.62c.488-.781.2-1.563,1.367-3.125A3.275,3.275,0,0,1,6.415,11.03c1.66-.391,2.149.977,1.66,2.149C7.587,14.448,7.1,15.522,6.9,16.3a1.28,1.28,0,0,0,1.758,1.367c2.051-.977-1.367-3.613,1.758-5.86a1.315,1.315,0,0,1,1.66,0c.488.488.488,1.27.781,2.149.684,2.051,3.418.781,2.246-.586-.586-.781-1.758-.879-1.953-2.246a1.623,1.623,0,0,1,1.172-1.856c1.367-.684,2.246.293,3.027,0,1.465-.488.488-2.442-1.074-1.856-4.3,1.66-6.25-2.246-5.078-4.1C13.544-.4,9.345-1.47,9.931,1.459Z" transform="translate(-0.183 0.223)" fill="#fff" stroke="#fff" stroke-width="1" fill-rule="evenodd"/>
    </g>
  </g>
</svg>
