<svg xmlns="http://www.w3.org/2000/svg" width="16.535" height="18.466" viewBox="0 0 16.535 18.466">
  <path id="Subtraction_2" data-name="Subtraction 2" d="M-431.088-236.017a2.47,2.47,0,0,1-1.24-.334l-.809-.47c.067-4.249.1-6.784.1-7.536.006-.045.012-.083.018-.117v-.334a.424.424,0,0,1,.423-.423h2.545a.847.847,0,0,1,.846.846.847.847,0,0,1-.846.845h-1.837l.145.233a2.663,2.663,0,0,0,2.4,1.381,2.091,2.091,0,0,0,.437-.043,2.276,2.276,0,0,0,1.864-2.2,2.681,2.681,0,0,0-1.08-2.24c.006,0,.562-.131.636-1.216a1.969,1.969,0,0,0-.5-1.494,2.4,2.4,0,0,0-1.628-.618h-4.995v12.06l-3.5-2.033a2.5,2.5,0,0,1-1.24-2.165l.008-6.74a2.5,2.5,0,0,1,1.237-2.157l5.794-3.377a2.469,2.469,0,0,1,1.242-.334,2.468,2.468,0,0,1,1.239.334l5.775,3.357a2.5,2.5,0,0,1,1.24,2.165l-.008,6.74a2.5,2.5,0,0,1-1.237,2.157l-5.793,3.377A2.47,2.47,0,0,1-431.088-236.017Zm1.04-10.581h-2.545a.424.424,0,0,1-.423-.423v-.846a.424.424,0,0,1,.423-.423h2.545a.847.847,0,0,1,.846.846.847.847,0,0,1-.846.846Z" transform="translate(439.344 254.483)" fill="#3e8bff"/>
</svg>
