<svg xmlns="http://www.w3.org/2000/svg" width="17.272" height="17.264" viewBox="0 0 17.272 17.264">
  <g id="noun_Maze_2222643" transform="translate(0.005)">
    <path id="Path_487" data-name="Path 487" d="M8.631,0A9.2,9.2,0,0,0,7.58.065H7.526A8.634,8.634,0,0,0,.648,11.923s0,.025,0,.04h0A8.634,8.634,0,0,0,15.4,13.97a.72.72,0,1,0-1.119-.885A7.2,7.2,0,0,1,2.245,12.005l.777-.36A6.353,6.353,0,0,0,14.776,7.019a.72.72,0,0,0-1.382.36,4.879,4.879,0,0,1,.162,1.256A4.932,4.932,0,0,1,9.35,13.506v-.867a4.069,4.069,0,0,0-.72-8.073,4.019,4.019,0,0,0-1.641.36.72.72,0,0,0,.561,1.292A2.641,2.641,0,1,1,6.113,7.85a.72.72,0,0,0-1.364-.421,4.011,4.011,0,0,0-.187,1.205,4.073,4.073,0,0,0,3.349,4v.867A4.925,4.925,0,1,1,11.869,4.94a.72.72,0,0,0,.943-1.079,6.35,6.35,0,0,0-4.18-1.576h0l-.148-.845h.148A7.2,7.2,0,0,1,15.366,11.2a.72.72,0,0,0,1.335.507A8.634,8.634,0,0,0,8.631,0ZM2.281,8.634a6.454,6.454,0,0,0,.234,1.677l-.784.36A7.2,7.2,0,0,1,7.066,1.6l.126.845A6.361,6.361,0,0,0,2.281,8.634Z" transform="translate(0 0)" fill="#fff"/>
  </g>
</svg>
