<svg xmlns="http://www.w3.org/2000/svg" width="18.629" height="18.629" viewBox="0 0 18.629 18.629">
  <g id="Icon_feather-headphones" data-name="Icon feather-headphones" transform="translate(-4 -4)">
    <path id="Path_76" data-name="Path 76" d="M4.5,19.191V13.314a8.814,8.814,0,1,1,17.629,0v5.876" fill="none" stroke="#fff" stroke-linecap="round" stroke-linejoin="round" stroke-width="1"/>
    <path id="Path_77" data-name="Path 77" d="M22.129,25.9a1.959,1.959,0,0,1-1.959,1.959h-.979A1.959,1.959,0,0,1,17.232,25.9V22.959A1.959,1.959,0,0,1,19.191,21h2.938ZM4.5,25.9a1.959,1.959,0,0,0,1.959,1.959h.979A1.959,1.959,0,0,0,9.4,25.9V22.959A1.959,1.959,0,0,0,7.438,21H4.5Z" transform="translate(0 -5.727)" fill="none" stroke="#fff" stroke-linecap="round" stroke-linejoin="round" stroke-width="1"/>
  </g>
</svg>
