<svg xmlns="http://www.w3.org/2000/svg" width="47.63" height="50.303" viewBox="0 0 47.63 50.303">
  <g id="bar-chart" transform="translate(-13.601)">
    <g id="Group_277" data-name="Group 277" transform="translate(13.601 14.408)">
      <g id="Group_276" data-name="Group 276">
        <path id="Path_321" data-name="Path 321" d="M60.249,180.583H58.094V149.3a2.644,2.644,0,0,0-2.641-2.641H50.636A2.644,2.644,0,0,0,48,149.3v31.288H42.524V163.471a2.644,2.644,0,0,0-2.641-2.641H35.066a2.644,2.644,0,0,0-2.641,2.641v17.112H26.953v-8.862a2.644,2.644,0,0,0-2.641-2.641H19.5a2.644,2.644,0,0,0-2.641,2.641v8.862H14.583a.982.982,0,1,0,0,1.965H60.249a.982.982,0,0,0,0-1.965Zm-35.261,0H18.819v-8.862a.677.677,0,0,1,.676-.676h4.816a.677.677,0,0,1,.676.676Zm15.57,0H34.39V163.471a.677.677,0,0,1,.676-.676h4.816a.677.677,0,0,1,.676.676Zm15.57,0H49.96V149.3a.677.677,0,0,1,.676-.676h4.816a.677.677,0,0,1,.676.676v31.288Z" transform="translate(-13.601 -146.654)" fill="#3e8bff"/>
      </g>
    </g>
    <g id="Group_279" data-name="Group 279" transform="translate(22.025)">
      <g id="Group_278" data-name="Group 278">
        <path id="Path_322" data-name="Path 322" d="M135.412,1.033A.979.979,0,0,0,134.382,0l-.048,0H128.39a.982.982,0,0,0,0,1.965h3.67l-9.712,9.713-3.663-3.663a.982.982,0,0,0-1.389,0L99.634,25.677a.982.982,0,0,0,1.389,1.389L117.991,10.1l3.663,3.663a.983.983,0,0,0,1.39,0L133.45,3.354V6.676a.982.982,0,0,0,1.965,0v-5.6C135.415,1.065,135.413,1.049,135.412,1.033Z" transform="translate(-99.346)" fill="#3e8bff"/>
      </g>
    </g>
    <g id="Group_281" data-name="Group 281" transform="translate(18.714 28.817)">
      <g id="Group_280" data-name="Group 280">
        <circle id="Ellipse_172" data-name="Ellipse 172" cx="0.982" cy="0.982" r="0.982" fill="#3e8bff"/>
      </g>
    </g>
  </g>
</svg>
