<svg xmlns="http://www.w3.org/2000/svg" width="48.747" height="62.842" viewBox="0 0 48.747 62.842">
  <g id="noun_Technology_3085795" transform="translate(-13.93 -3.5)">
    <g id="Group_282" data-name="Group 282" transform="translate(13.93 3.5)">
      <path id="Path_323" data-name="Path 323" d="M61.442,38.73h-11.1a1.014,1.014,0,1,0,0,2.027H60.428V64.09H16.587V40.757H26.669a1.014,1.014,0,1,0,0-2.027h-11.1a1.012,1.012,0,0,0-1.014,1.014V71.395H34.717v4.345H29.8a1.014,1.014,0,0,0,0,2.027H47.225a1.014,1.014,0,1,0,0-2.027H42.305V71.395H62.462V39.744A1.022,1.022,0,0,0,61.442,38.73ZM40.278,75.739H36.744V71.395h3.534Zm20.15-6.372H16.587v-3.25H60.428Z" transform="translate(-14.134 -14.924)" fill="#3e8bff"/>
      <path id="Path_324" data-name="Path 324" d="M59.694,40.53a1.012,1.012,0,0,0,1.014-1.014V24.022h5.906a5.338,5.338,0,1,0,0-2.027H59.694a1.012,1.012,0,0,0-1.014,1.014V39.516A1.012,1.012,0,0,0,59.694,40.53ZM71.85,19.7a3.311,3.311,0,1,1-3.311,3.311A3.316,3.316,0,0,1,71.85,19.7Z" transform="translate(-28.441 -8.095)" fill="#3e8bff"/>
      <path id="Path_325" data-name="Path 325" d="M46.506,14.089V40.1a1.014,1.014,0,1,0,2.027,0V14.062a5.349,5.349,0,1,0-2.027.027Zm.933-8.561a3.311,3.311,0,1,1-3.311,3.311A3.316,3.316,0,0,1,47.438,5.527Z" transform="translate(-23.065 -3.5)" fill="#3e8bff"/>
      <path id="Path_326" data-name="Path 326" d="M19.268,28.346a5.343,5.343,0,0,0,5.237-4.325h6.068V39.516a1.014,1.014,0,0,0,2.027,0V23.008a1.012,1.012,0,0,0-1.014-1.014H24.505a5.336,5.336,0,1,0-5.237,6.352Zm0-8.649a3.311,3.311,0,1,1-3.311,3.311A3.316,3.316,0,0,1,19.268,19.7Z" transform="translate(-13.93 -8.095)" fill="#3e8bff"/>
    </g>
  </g>
</svg>
