<svg xmlns="http://www.w3.org/2000/svg" width="66.017" height="58.42" viewBox="0 0 66.017 58.42">
  <g id="vector" transform="translate(0 -29.327)">
    <path id="Path_349" data-name="Path 349" d="M230.933,438.851a.972.972,0,0,1-.972-.972V435.3a.672.672,0,0,0-.671-.671h-2.608a.672.672,0,0,0-.671.671v2.583a.972.972,0,1,1-1.943,0V435.3a2.617,2.617,0,0,1,2.614-2.614h2.608A2.617,2.617,0,0,1,231.9,435.3v2.583a.971.971,0,0,1-.972.972Z" transform="translate(-195.043 -351.105)" fill="#3e8bff"/>
    <g id="Group_305" data-name="Group 305" transform="translate(0 29.327)">
      <path id="Path_350" data-name="Path 350" d="M163.386,136.349a.972.972,0,0,0-1.562,1.156l4.824,6.516a2.045,2.045,0,0,1-.088,2.485l-5.2,5.932H146.727l-5.2-5.932a2.045,2.045,0,0,1-.088-2.485l9.578-12.937v7.371a4.951,4.951,0,1,0,6.181.105v-7.3l2.133,2.881a.972.972,0,1,0,1.562-1.156l-4.167-5.628a3.278,3.278,0,0,0-5.365,0l-11.483,15.509a4,4,0,0,0,.189,4.922l4.335,4.947a3.173,3.173,0,0,0-1.835,2.873v4.635a3.175,3.175,0,0,0,2.226,3.026l.265,7.658a.971.971,0,0,0,.97.938h.034a.972.972,0,0,0,.937-1l-.258-7.447h14.733l-.258,7.447a.972.972,0,0,0,.937,1h.034a.972.972,0,0,0,.97-.938l.267-7.7a3.174,3.174,0,0,0,2.095-2.981v-4.635a3.173,3.173,0,0,0-1.835-2.873l4.335-4.947a4,4,0,0,0,.189-4.922Zm-9.341-8.444a1.39,1.39,0,0,1,1.121.607l.091.123v10.414a.972.972,0,0,0,.437.812,3.006,3.006,0,1,1-3.2-.063.971.971,0,0,0,.469-.832v-10.5A1.376,1.376,0,0,1,154.045,127.9Zm9.534,32.337a1.227,1.227,0,0,1-1.226,1.226H145.737a1.227,1.227,0,0,1-1.226-1.226v-4.635a1.227,1.227,0,0,1,1.226-1.226h16.616a1.227,1.227,0,0,1,1.226,1.226Z" transform="translate(-121.101 -113.444)" fill="#3e8bff"/>
      <path id="Path_351" data-name="Path 351" d="M72.371,139.815a19.408,19.408,0,0,1,2.5-8.762.972.972,0,0,0-1.69-.959,21.353,21.353,0,0,0-2.754,9.712,3.875,3.875,0,1,0,1.945.009Zm-.99,5.678a1.932,1.932,0,1,1,1.932-1.932A1.934,1.934,0,0,1,71.381,145.493Z" transform="translate(-58.761 -116.612)" fill="#3e8bff"/>
      <path id="Path_352" data-name="Path 352" d="M63.96,29.327H60.838a2.059,2.059,0,0,0-2.057,2.057v.59H36.627v-.59a2.059,2.059,0,0,0-2.057-2.057H31.447a2.059,2.059,0,0,0-2.057,2.057v.59H7.236v-.59a2.059,2.059,0,0,0-2.057-2.057H2.057A2.059,2.059,0,0,0,0,31.384v3.122a2.059,2.059,0,0,0,2.057,2.057H5.179a2.059,2.059,0,0,0,2.057-2.057v-.59H24.1a21.4,21.4,0,0,0-7.131,5.31.972.972,0,0,0,1.458,1.284A19.4,19.4,0,0,1,29.39,34.255v.251a2.059,2.059,0,0,0,2.057,2.057H34.57a2.059,2.059,0,0,0,2.057-2.057v-.251A19.46,19.46,0,0,1,52.409,52.53a3.875,3.875,0,1,0,1.944-.009,21.433,21.433,0,0,0-12.437-18.6H58.781v.59a2.059,2.059,0,0,0,2.057,2.057H63.96a2.059,2.059,0,0,0,2.057-2.057V31.384a2.059,2.059,0,0,0-2.057-2.057ZM5.293,34.506a.114.114,0,0,1-.114.114H2.057a.114.114,0,0,1-.114-.114V31.384a.114.114,0,0,1,.114-.114H5.179a.114.114,0,0,1,.114.114Zm50.036,21.77A1.932,1.932,0,1,1,53.4,54.344,1.934,1.934,0,0,1,55.329,56.276ZM34.684,34.506a.114.114,0,0,1-.114.114H31.447a.114.114,0,0,1-.114-.114V31.384a.114.114,0,0,1,.114-.114H34.57a.114.114,0,0,1,.114.114Zm29.39,0a.114.114,0,0,1-.114.114H60.838a.114.114,0,0,1-.114-.114V31.384a.114.114,0,0,1,.114-.114H63.96a.114.114,0,0,1,.114.114Z" transform="translate(0 -29.327)" fill="#3e8bff"/>
    </g>
  </g>
</svg>
