<svg id="noun_Game_1839814" xmlns="http://www.w3.org/2000/svg" width="57.098" height="57.098" viewBox="0 0 57.098 57.098">
  <path id="Path_359" data-name="Path 359" d="M57.865,657H82.088a.865.865,0,0,1,.865.865v24.223a.865.865,0,0,1-.865.865H57.865a.865.865,0,0,1-.865-.865V657.865A.865.865,0,0,1,57.865,657Zm.865,1.73v22.493H81.223V658.73ZM89.009,657h24.223a.865.865,0,0,1,.865.865v24.223a.865.865,0,0,1-.865.865H89.009a.865.865,0,0,1-.865-.865V657.865A.865.865,0,0,1,89.009,657Zm.865,1.73v22.493h22.493V658.73ZM57.865,688.144H82.088a.865.865,0,0,1,.865.865v24.223a.865.865,0,0,1-.865.865H57.865a.865.865,0,0,1-.865-.865V689.009A.865.865,0,0,1,57.865,688.144Zm.865,1.73v22.493H81.223V689.874Zm30.279-1.73h24.223a.865.865,0,0,1,.865.865v24.223a.865.865,0,0,1-.865.865H89.009a.865.865,0,0,1-.865-.865V689.009A.865.865,0,0,1,89.009,688.144Zm.865,1.73v22.493h22.493V689.874Zm-19.9-12.112a7.786,7.786,0,1,1,7.786-7.786A7.786,7.786,0,0,1,69.977,677.763Zm0-1.73a6.056,6.056,0,1,0-6.056-6.056A6.056,6.056,0,0,0,69.977,676.033ZM99.9,669.977,95.319,665.4a.865.865,0,0,1,1.223-1.223l4.579,4.579,4.579-4.579a.865.865,0,0,1,1.223,1.223l-4.579,4.579,4.579,4.579a.865.865,0,1,1-1.223,1.223l-4.579-4.579-4.579,4.579a.865.865,0,0,1-1.223-1.223ZM68.753,701.121l-4.579-4.579a.865.865,0,1,1,1.223-1.223l4.579,4.579,4.579-4.579a.865.865,0,0,1,1.223,1.223L71.2,701.121l4.579,4.579a.865.865,0,0,1-1.223,1.223l-4.579-4.579L65.4,706.923a.865.865,0,0,1-1.223-1.223Z" transform="translate(-57 -657)" fill="#3e8bff" fill-rule="evenodd"/>
</svg>
