<svg xmlns="http://www.w3.org/2000/svg" width="55.056" height="57.4" viewBox="0 0 55.056 57.4">
  <g id="statistics_1_" data-name="statistics (1)" transform="translate(-1.003 -1.004)">
    <g id="Group_306" data-name="Group 306" transform="translate(1.003 1.004)">
      <path id="Path_369" data-name="Path 369" d="M18.449,18.572H33.031a1.172,1.172,0,0,0,1.054-1.678L26.794,1.665a1.172,1.172,0,0,0-2.109,0l-7.292,15.23a1.172,1.172,0,0,0,1.056,1.678ZM25.739,4.883l5.432,11.346H20.309Z" transform="translate(1.788 -1.004)" fill="#3e8bff"/>
      <path id="Path_370" data-name="Path 370" d="M10.311,35.573H43.96A1.172,1.172,0,0,0,45.014,33.9l-7.29-15.23A1.172,1.172,0,0,0,36.67,18H17.6a1.172,1.172,0,0,0-1.054.665L9.256,33.9a1.172,1.172,0,0,0,1.056,1.678Zm8.027-15.23H35.933L42.1,33.23H12.171Z" transform="translate(0.392 1.911)" fill="#3e8bff"/>
      <path id="Path_371" data-name="Path 371" d="M55.944,50.894l-7.29-15.23A1.172,1.172,0,0,0,47.6,35H9.464a1.172,1.172,0,0,0-1.054.665l-7.29,15.23a1.172,1.172,0,0,0,1.052,1.679H54.89a1.172,1.172,0,0,0,1.054-1.679ZM4.033,50.23,10.2,37.343H46.862L53.031,50.23Z" transform="translate(-1.003 4.827)" fill="#3e8bff"/>
    </g>
  </g>
</svg>
