<svg xmlns="http://www.w3.org/2000/svg" width="49.747" height="65.094" viewBox="0 0 49.747 65.094">
  <g id="document_1_" data-name="document (1)" transform="translate(-22 -10)">
    <path id="Path_361" data-name="Path 361" d="M66.832,22.3h-.112V20.067a.814.814,0,0,0-.262-.571L56.83,10.222A.818.818,0,0,0,56.269,10H26.988A4.991,4.991,0,0,0,22,14.97V65.326a5.022,5.022,0,0,0,4.988,5.005h1.74a4.956,4.956,0,0,0,4.966,4.763H66.832a4.929,4.929,0,0,0,4.915-4.97V27.245a4.9,4.9,0,0,0-4.915-4.94Zm-9.771-9.642,6.881,6.6H57.061ZM26.988,68.744a3.432,3.432,0,0,1-3.4-3.418V14.97a3.4,3.4,0,0,1,3.4-3.383H55.473v8.5a.767.767,0,0,0,.8.76h8.863V65.326a3.451,3.451,0,0,1-3.422,3.418Zm43.171,1.38a3.34,3.34,0,0,1-3.328,3.383H33.694a3.4,3.4,0,0,1-3.378-3.175H61.71a5.04,5.04,0,0,0,5.01-5.006V23.892h.112a3.314,3.314,0,0,1,3.328,3.353Z" transform="translate(0)" fill="#3e8bff"/>
    <path id="Path_362" data-name="Path 362" d="M87.454,312a.794.794,0,1,0,0,1.588h16.533a.794.794,0,0,0,0-1.588Z" transform="translate(-56.105 -262.044)" fill="#3e8bff"/>
    <path id="Path_363" data-name="Path 363" d="M113.462,350H87.454a.794.794,0,0,0,0,1.588h26.008a.794.794,0,0,0,0-1.588Z" transform="translate(-56.105 -295.016)" fill="#3e8bff"/>
    <path id="Path_364" data-name="Path 364" d="M109.729,387H87.454a.794.794,0,1,0,0,1.588h22.275a.794.794,0,0,0,0-1.588Z" transform="translate(-56.105 -327.121)" fill="#3e8bff"/>
    <path id="Path_365" data-name="Path 365" d="M81.747,98.012A12.787,12.787,0,1,0,78.419,72.88L77.993,71.6a.794.794,0,0,0-.753-.542,9.879,9.879,0,0,0-9.878,9.878.794.794,0,0,0,.542.755l1.428.476A12.787,12.787,0,0,0,81.747,98.012Zm0-23.986a11.2,11.2,0,1,1-10.9,8.642L81.531,86.23a.794.794,0,0,0,1-1L78.922,74.388a11.181,11.181,0,0,1,2.825-.362ZM68.967,80.37a8.294,8.294,0,0,1,7.707-7.707l3.854,11.56Z" transform="translate(-39.359 -52.978)" fill="#3e8bff"/>
    <path id="Path_366" data-name="Path 366" d="M48.794,40.583a.794.794,0,0,0-.794.794v.569a.794.794,0,1,0,1.588,0v-.569A.794.794,0,0,0,48.794,40.583Z" transform="translate(-22.56 -26.537)" fill="#3e8bff"/>
    <path id="Path_367" data-name="Path 367" d="M48.794,65.878a.794.794,0,0,0-.794.794V76.2a.794.794,0,0,0,1.588,0V66.672A.794.794,0,0,0,48.794,65.878Z" transform="translate(-22.56 -48.485)" fill="#3e8bff"/>
  </g>
</svg>
