<svg xmlns="http://www.w3.org/2000/svg" width="50.803" height="50.803" viewBox="0 0 50.803 50.803">
  <g id="noun_animation_2823179" transform="translate(-0.75 -0.75)">
    <path id="Path_301" data-name="Path 301" d="M48.46,51.3H3.843A2.846,2.846,0,0,1,1,48.459V3.844A2.846,2.846,0,0,1,3.843,1H48.459A2.847,2.847,0,0,1,51.3,3.844V48.459A2.846,2.846,0,0,1,48.46,51.3ZM3.843,1.811A2.035,2.035,0,0,0,1.811,3.844V48.459a2.035,2.035,0,0,0,2.032,2.032H48.459a2.035,2.035,0,0,0,2.032-2.032V3.844A2.035,2.035,0,0,0,48.46,1.811Z" fill="#3e8bff" stroke="#3e8bff" stroke-width="0.5"/>
    <path id="Path_302" data-name="Path 302" d="M50.9,12.811H1.406a.406.406,0,1,1,0-.811H50.9a.406.406,0,1,1,0,.811Z" transform="translate(0 -2.075)" fill="#3e8bff" stroke="#3e8bff" stroke-width="0.5"/>
    <path id="Path_303" data-name="Path 303" d="M55.048,51.811H23.406a.406.406,0,0,1,0-.811H55.048a.406.406,0,1,1,0,.811Z" transform="translate(-4.151 -9.433)" fill="#3e8bff" stroke="#3e8bff" stroke-width="0.5"/>
    <path id="Path_304" data-name="Path 304" d="M8.708,51.811h-7.3a.406.406,0,0,1,0-.811h7.3a.406.406,0,0,1,0,.811Z" transform="translate(0 -9.433)" fill="#3e8bff" stroke="#3e8bff" stroke-width="0.5"/>
    <path id="Path_305" data-name="Path 305" d="M18.3,37.6a7.3,7.3,0,1,1,7.3-7.3A7.31,7.31,0,0,1,18.3,37.6Zm0-13.793A6.491,6.491,0,1,0,24.793,30.3,6.5,6.5,0,0,0,18.3,23.811Z" transform="translate(-1.887 -4.151)" fill="#3e8bff" stroke="#3e8bff" stroke-width="0.5"/>
    <path id="Path_306" data-name="Path 306" d="M28.962,37.6a7.249,7.249,0,0,1-4.3-1.4.406.406,0,1,1,.478-.656,6.49,6.49,0,1,0,0-10.5.406.406,0,1,1-.478-.656,7.3,7.3,0,1,1,4.3,13.208Z" transform="translate(-4.433 -4.151)" fill="#3e8bff" stroke="#3e8bff" stroke-width="0.5"/>
    <path id="Path_307" data-name="Path 307" d="M30.519,32.811H22.406a.406.406,0,0,1,0-.811h8.113a.406.406,0,1,1,0,.811Z" transform="translate(-3.962 -5.849)" fill="#3e8bff" stroke="#3e8bff" stroke-width="0.5"/>
    <path id="Path_308" data-name="Path 308" d="M50.519,32.811H42.406a.406.406,0,0,1,0-.811h8.113a.406.406,0,0,1,0,.811Z" transform="translate(-7.735 -5.849)" fill="#3e8bff" stroke="#3e8bff" stroke-width="0.5"/>
    <path id="Path_309" data-name="Path 309" d="M46.085,26.811H40.406a.406.406,0,0,1,0-.811h5.679a.406.406,0,0,1,0,.811Z" transform="translate(-7.358 -4.717)" fill="#3e8bff" stroke="#3e8bff" stroke-width="0.5"/>
    <path id="Path_310" data-name="Path 310" d="M42.764,37.811H31.406a.406.406,0,1,1,0-.811H42.764a.406.406,0,0,1,0,.811Z" transform="translate(-5.66 -6.792)" fill="#3e8bff" stroke="#3e8bff" stroke-width="0.5"/>
    <path id="Path_311" data-name="Path 311" d="M12.462,58.868H8.406A.406.406,0,0,1,8,58.462V54.406A.406.406,0,0,1,8.406,54h4.057a.406.406,0,0,1,.406.406v4.057A.406.406,0,0,1,12.462,58.868Zm-3.651-.811h3.245V54.811H8.811Z" transform="translate(-1.321 -9.999)" fill="#3e8bff" stroke="#3e8bff" stroke-width="0.5"/>
    <path id="Path_312" data-name="Path 312" d="M26.462,58.868H22.406A.406.406,0,0,1,22,58.462V54.406A.406.406,0,0,1,22.406,54h4.057a.406.406,0,0,1,.406.406v4.057A.406.406,0,0,1,26.462,58.868Zm-3.651-.811h3.245V54.811H22.811Z" transform="translate(-3.962 -9.999)" fill="#3e8bff" stroke="#3e8bff" stroke-width="0.5"/>
    <path id="Path_313" data-name="Path 313" d="M40.462,58.868H36.406A.406.406,0,0,1,36,58.462V54.406A.406.406,0,0,1,36.406,54h4.057a.406.406,0,0,1,.406.406v4.057A.406.406,0,0,1,40.462,58.868Zm-3.651-.811h3.245V54.811H36.811Z" transform="translate(-6.603 -9.999)" fill="#3e8bff" stroke="#3e8bff" stroke-width="0.5"/>
    <path id="Path_314" data-name="Path 314" d="M54.462,58.868H50.406A.406.406,0,0,1,50,58.462V54.406A.406.406,0,0,1,50.406,54h4.057a.406.406,0,0,1,.406.406v4.057A.406.406,0,0,1,54.462,58.868Zm-3.651-.811h3.245V54.811H50.811Z" transform="translate(-9.245 -9.999)" fill="#3e8bff" stroke="#3e8bff" stroke-width="0.5"/>
    <path id="Path_315" data-name="Path 315" d="M12.462,8.868H8.406A.406.406,0,0,1,8,8.462V4.406A.406.406,0,0,1,8.406,4h4.057a.406.406,0,0,1,.406.406V8.462A.406.406,0,0,1,12.462,8.868ZM8.811,8.057h3.245V4.811H8.811Z" transform="translate(-1.321 -0.566)" fill="#3e8bff" stroke="#3e8bff" stroke-width="0.5"/>
    <path id="Path_316" data-name="Path 316" d="M26.462,8.868H22.406A.406.406,0,0,1,22,8.462V4.406A.406.406,0,0,1,22.406,4h4.057a.406.406,0,0,1,.406.406V8.462A.406.406,0,0,1,26.462,8.868Zm-3.651-.811h3.245V4.811H22.811Z" transform="translate(-3.962 -0.566)" fill="#3e8bff" stroke="#3e8bff" stroke-width="0.5"/>
    <path id="Path_317" data-name="Path 317" d="M40.462,8.868H36.406A.406.406,0,0,1,36,8.462V4.406A.406.406,0,0,1,36.406,4h4.057a.406.406,0,0,1,.406.406V8.462A.406.406,0,0,1,40.462,8.868Zm-3.651-.811h3.245V4.811H36.811Z" transform="translate(-6.603 -0.566)" fill="#3e8bff" stroke="#3e8bff" stroke-width="0.5"/>
    <path id="Path_318" data-name="Path 318" d="M54.462,8.868H50.406A.406.406,0,0,1,50,8.462V4.406A.406.406,0,0,1,50.406,4h4.057a.406.406,0,0,1,.406.406V8.462A.406.406,0,0,1,54.462,8.868Zm-3.651-.811h3.245V4.811H50.811Z" transform="translate(-9.245 -0.566)" fill="#3e8bff" stroke="#3e8bff" stroke-width="0.5"/>
    <path id="Path_319" data-name="Path 319" d="M17.462,51.811H13.406a.406.406,0,0,1,0-.811h4.057a.406.406,0,0,1,0,.811Z" transform="translate(-2.264 -9.433)" fill="#3e8bff" stroke="#3e8bff" stroke-width="0.5"/>
  </g>
</svg>
