<svg xmlns="http://www.w3.org/2000/svg" width="64.528" height="57.401" viewBox="0 0 64.528 57.401">
  <g id="noun_Megaphone_3235342" transform="translate(-52.781 -103.255)">
    <g id="Group_304" data-name="Group 304" transform="translate(52.782 103.255)">
      <g id="Group_291" data-name="Group 291" transform="translate(4.953 18.455)">
        <g id="Group_290" data-name="Group 290">
          <path id="Path_342" data-name="Path 342" d="M149.631,383.67c-1.173.443-2.346.892-3.519,1.335l-7.206,2.739c-1.988.759-3.982,1.51-5.97,2.269-.33.126-.653.253-.983.372-.049.014-.337.1-.225.077s-.183,0-.232,0c-.021,0-.162-.028-.042,0s-.049-.021-.084-.028l-.126-.042c.14.049.049.021-.035-.028-.042-.021-.077-.049-.112-.07.042.028.133.133,0-.007a.651.651,0,0,0-.1-.1c-.112-.105.077.126-.007,0-.042-.063-.162-.281-.091-.133-.056-.133-.105-.267-.155-.4l-2.191-5.773q-1.275-3.35-2.543-6.7c-.169-.435-.337-.871-.5-1.306-.021-.063-.1-.4-.07-.183-.014-.105,0-.218-.007-.323s0,.035-.007.056c.021-.07.042-.148.056-.218.028-.112-.014.028-.021.042a1.782,1.782,0,0,0,.084-.162c.007-.014.091-.14.021-.042s.042-.042.063-.07a1.3,1.3,0,0,1,.1-.1c-.035.035-.162.1.007,0,.049-.028.246-.133.091-.063.091-.042.183-.07.274-.105q2.465-.938,4.931-1.868,3.677-1.4,7.361-2.8c1.622-.618,3.252-1.236,4.874-1.847.077-.028.162-.063.239-.091-.435-.246-.864-.492-1.3-.738.752,1.988,1.51,3.975,2.262,5.963q1.791,4.73,3.589,9.468c.274.723.548,1.447.822,2.177a1.085,1.085,0,0,0,1.3.737,1.061,1.061,0,0,0,.737-1.3c-.752-1.988-1.51-3.975-2.262-5.963q-1.791-4.73-3.589-9.468c-.274-.723-.548-1.447-.822-2.177a1.073,1.073,0,0,0-1.3-.738c-1.208.457-2.423.92-3.631,1.377l-7.389,2.8q-2.95,1.117-5.9,2.241a5.809,5.809,0,0,0-1.728.843,2.877,2.877,0,0,0-.836,3.1l.126.337c.737,1.939,1.468,3.877,2.205,5.809q1.3,3.4,2.585,6.813c.155.414.309.822.471,1.236a2.915,2.915,0,0,0,3.793,1.735c1.573-.6,3.154-1.194,4.727-1.8q3.751-1.422,7.508-2.852,2.518-.959,5.043-1.91c.084-.035.176-.063.26-.1a1.085,1.085,0,0,0,.737-1.3A1.044,1.044,0,0,0,149.631,383.67Z" transform="translate(-123.307 -366.014)" fill="#3e8bff"/>
        </g>
      </g>
      <g id="Group_293" data-name="Group 293" transform="translate(0 28.689)">
        <g id="Group_292" data-name="Group 292">
          <path id="Path_343" data-name="Path 343" d="M63.571,523.6c-1.243.471-2.479.948-3.723,1.412-.084.035-.169.063-.26.091a2.378,2.378,0,0,1-.239.056c-.176.042.246-.007-.049.007-.063,0-.126.007-.19.007-.035,0-.358-.021-.232-.007.162.021-.133-.028-.133-.028a1.3,1.3,0,0,1-.176-.049c-.035-.014-.3-.133-.091-.028-.056-.028-.112-.056-.162-.084s-.105-.063-.162-.1c-.239-.133.119.126-.084-.056a2.443,2.443,0,0,1-.323-.337c.14.176-.042-.077-.056-.1-.035-.056-.063-.112-.091-.169-.155-.274.007.035-.014-.028-.014-.042-.035-.084-.049-.126-.084-.218-.169-.435-.246-.653-.6-1.566-1.187-3.133-1.784-4.706-.162-.421-.33-.843-.478-1.264a1.611,1.611,0,0,1-.063-.2c-.021-.063-.028-.126-.049-.19-.077-.288,0,.126-.014-.049-.014-.141-.007-.281-.007-.422,0-.281-.063.183.014-.091.021-.091.042-.183.07-.267.021-.056.042-.119.063-.176-.077.19,0,.007.028-.042s.246-.372.112-.211a2.95,2.95,0,0,1,.323-.337c.211-.2-.1.056.049-.035.1-.063.19-.112.288-.169.126-.07.035-.021.035-.021a.864.864,0,0,1,.1-.035c.133-.049.267-.1.393-.148.428-.161.857-.323,1.292-.492l1.995-.759c-.435-.246-.864-.492-1.3-.738.506,1.328,1,2.655,1.51,3.982l2.423,6.385c.183.485.372.976.555,1.461a1.085,1.085,0,0,0,1.3.737,1.061,1.061,0,0,0,.737-1.3c-.506-1.327-1-2.655-1.51-3.982l-2.423-6.385c-.183-.485-.372-.976-.555-1.461a1.073,1.073,0,0,0-1.3-.738c-1.257.478-2.529.941-3.779,1.433a3.847,3.847,0,0,0-2.536,3.477,5.051,5.051,0,0,0,.464,1.981l1.875,4.931c.162.421.316.843.478,1.264a3.77,3.77,0,0,0,3.814,2.409,10.3,10.3,0,0,0,2.578-.822l2.156-.822a1.085,1.085,0,0,0,.737-1.3A1.1,1.1,0,0,0,63.571,523.6Z" transform="translate(-52.782 -511.714)" fill="#3e8bff"/>
        </g>
      </g>
      <g id="Group_295" data-name="Group 295" transform="translate(23.865 0)">
        <g id="Group_294" data-name="Group 294">
          <path id="Path_344" data-name="Path 344" d="M423.475,143.384l-7.8-1.37q-6.163-1.085-12.326-2.163c-.941-.162-1.875-.33-2.816-.492l.737.737c-.752-1.988-1.51-3.975-2.262-5.963q-1.791-4.73-3.589-9.468c-.274-.723-.548-1.447-.822-2.177-.091.344-.183.681-.274,1.025.9-1.124,1.791-2.255,2.69-3.378l5.647-7.1,4.987-6.272c.372-.464.737-.941,1.117-1.4a.492.492,0,0,0,.056-.07c.014-.028.126.379.056-.063.007.035-.2.112-.19.105-.049.021-.225-.021-.049.007a1,1,0,0,1-.239-.063c-.042-.014-.14-.169-.028-.021a.462.462,0,0,1-.14-.253v.007c.021.077.056.147.084.225.478,1.264.962,2.529,1.44,3.793q1.349,3.561,2.7,7.129,1.665,4.372,3.322,8.751,1.643,4.33,3.28,8.653,1.3,3.413,2.592,6.834c.414,1.1.843,2.184,1.25,3.287.007.028.021.049.028.077a.007.007,0,0,0,.007.007c.077.211,0,.035.007-.007.021-.091.007-.162.07-.246a.366.366,0,0,1,.147-.126c.07-.035.253-.028.049-.049a1.061,1.061,0,0,0-1.054,1.054,1.085,1.085,0,0,0,1.054,1.054,1.737,1.737,0,0,0,1.763-2.241,1.524,1.524,0,0,0-.063-.162c-.126-.33-.253-.66-.372-.99-.527-1.384-1.054-2.774-1.58-4.158q-1.18-3.1-2.353-6.2-1.391-3.656-2.774-7.3-1.391-3.677-2.788-7.354-1.222-3.224-2.451-6.455c-.576-1.51-1.145-3.02-1.721-4.53l-.464-1.222a2.909,2.909,0,0,0-.569-1.082,1.75,1.75,0,0,0-2.507.07c-.077.084-.148.183-.218.274-.372.471-.752.941-1.124,1.419q-2.065,2.6-4.137,5.2-2.434,3.055-4.867,6.118c-1.18,1.482-2.353,2.964-3.533,4.439-.2.253-.4.5-.6.752-.513.653-.239,1.124.007,1.763q1.064,2.8,2.128,5.612,1.37,3.614,2.746,7.234c.506,1.335,1,2.669,1.517,4,.267.674.653.752,1.222.857l1.91.337c2.227.393,4.453.78,6.686,1.173l7.7,1.349c1.791.316,3.582.625,5.373.941.267.049.527.091.794.14a1.084,1.084,0,0,0,1.3-.737A1.125,1.125,0,0,0,423.475,143.384Z" transform="translate(-392.569 -103.255)" fill="#3e8bff"/>
        </g>
      </g>
      <g id="Group_297" data-name="Group 297" transform="translate(14.799 38.283)">
        <g id="Group_296" data-name="Group 296">
          <path id="Path_345" data-name="Path 345" d="M277.033,663.231l-4.228,1.6c-.337.126-.681.26-1.018.386-.091.035-.19.063-.288.105-.386.176.4-.414.632.344a4.164,4.164,0,0,0-.351-.681q-2.392-4.7-4.783-9.4c-.513-1-1.018-2-1.531-3.006-.211.513-.421,1.033-.632,1.545q4.288-1.622,8.569-3.252c.4-.155.8-.3,1.194-.457-.435-.246-.864-.492-1.3-.738l.927,2.444c.042.105.084.211.119.316a2.166,2.166,0,0,1,.14,1.187c.007-.042-.042.183-.063.239s-.035.105-.049.161c0-.007-.056.169-.028.084a3.707,3.707,0,0,1-.33.569c-.077.112-.162.225-.246.337-.288.393-.569.787-.857,1.18a1.043,1.043,0,0,0,0,1.061q1.612,3.076,3.231,6.153c.105.2.218.414.323.618.028.056.056.112.084.161.007.014.014.035.021.049a.69.69,0,0,1,.19-.913,1.053,1.053,0,1,0,1.061,1.819,1.445,1.445,0,0,0,.562-1.974c-.056-.105-.112-.211-.169-.323-.274-.52-.548-1.047-.822-1.566-.716-1.363-1.433-2.732-2.149-4.095-.176-.33-.344-.66-.52-.99v1.061a9.423,9.423,0,0,0,1.721-2.838,4.358,4.358,0,0,0-.126-2.676c-.169-.449-.344-.9-.513-1.349-.162-.428-.323-.857-.492-1.285a1.073,1.073,0,0,0-1.3-.738q-4.288,1.622-8.569,3.252c-.4.155-.8.3-1.194.457a1.072,1.072,0,0,0-.632,1.545q1.981,3.9,3.961,7.789c.759,1.5,1.517,2.985,2.276,4.481.141.274.267.555.414.815a1.452,1.452,0,0,0,1.7.653c.232-.077.45-.169.674-.26,1.637-.618,3.266-1.243,4.9-1.861a1.085,1.085,0,0,0,.737-1.3A1,1,0,0,0,277.033,663.231Z" transform="translate(-263.483 -648.314)" fill="#3e8bff"/>
        </g>
      </g>
      <g id="Group_299" data-name="Group 299" transform="translate(54.108 14.659)">
        <g id="Group_298" data-name="Group 298" transform="translate(0)">
          <path id="Path_346" data-name="Path 346" d="M824.489,316.418c1.819-.688,3.638-1.384,5.457-2.072.26-.1.52-.2.773-.295a1.085,1.085,0,0,0,.737-1.3,1.061,1.061,0,0,0-1.3-.737c-1.819.688-3.638,1.384-5.457,2.072-.26.1-.52.2-.773.295a1.085,1.085,0,0,0-.738,1.3,1.064,1.064,0,0,0,1.3.737Z" transform="translate(-823.151 -311.963)" fill="#3e8bff"/>
        </g>
      </g>
      <g id="Group_301" data-name="Group 301" transform="translate(48.255 3.132)">
        <g id="Group_300" data-name="Group 300">
          <path id="Path_347" data-name="Path 347" d="M741.614,154.455l4.046-4.214c.19-.2.379-.4.576-.6a1.073,1.073,0,0,0,0-1.489,1.06,1.06,0,0,0-1.489,0l-4.046,4.214c-.19.2-.379.4-.576.6a1.053,1.053,0,0,0,1.489,1.489Z" transform="translate(-739.825 -147.85)" fill="#3e8bff"/>
        </g>
      </g>
      <g id="Group_303" data-name="Group 303" transform="translate(55.768 27.744)">
        <g id="Group_302" data-name="Group 302" transform="translate(0)">
          <path id="Path_348" data-name="Path 348" d="M847.845,500.378c1.939.155,3.884.316,5.823.471.274.021.548.042.829.07a1.066,1.066,0,0,0,1.054-1.054,1.08,1.08,0,0,0-1.054-1.054c-1.939-.155-3.884-.316-5.823-.471-.274-.021-.548-.042-.829-.07a1.054,1.054,0,0,0,0,2.107Z" transform="translate(-846.791 -498.268)" fill="#3e8bff"/>
        </g>
      </g>
    </g>
  </g>
</svg>
