<svg xmlns="http://www.w3.org/2000/svg" width="29.706" height="33.175" viewBox="0 0 29.706 33.175">
  <path id="Subtraction_2" data-name="Subtraction 2" d="M-424.512-221.308a4.437,4.437,0,0,1-2.227-.6l-1.454-.845c.121-7.633.183-12.188.183-13.539.011-.081.022-.149.033-.21v-.6a.761.761,0,0,1,.76-.76h4.572a1.522,1.522,0,0,1,1.52,1.52,1.521,1.521,0,0,1-1.52,1.519h-3.3l.261.419a4.785,4.785,0,0,0,4.307,2.482,3.754,3.754,0,0,0,.785-.077,4.089,4.089,0,0,0,3.348-3.953,4.816,4.816,0,0,0-1.941-4.024c.011,0,1.01-.235,1.142-2.185a3.537,3.537,0,0,0-.892-2.685,4.32,4.32,0,0,0-2.925-1.111h-8.974v21.666l-6.283-3.652a4.5,4.5,0,0,1-2.227-3.889l.014-12.109a4.5,4.5,0,0,1,2.222-3.875l10.409-6.067a4.435,4.435,0,0,1,2.231-.6,4.435,4.435,0,0,1,2.226.6l10.376,6.031a4.5,4.5,0,0,1,2.228,3.889l-.014,12.109a4.5,4.5,0,0,1-2.222,3.875l-10.408,6.067a4.437,4.437,0,0,1-2.23.6Zm1.868-19.01h-4.572a.761.761,0,0,1-.76-.76v-1.52a.761.761,0,0,1,.76-.76h4.572a1.522,1.522,0,0,1,1.52,1.52,1.522,1.522,0,0,1-1.52,1.52Z" transform="translate(439.344 254.483)" fill="#fff"/>
</svg>
