<svg xmlns="http://www.w3.org/2000/svg" width="20.475" height="22.866" viewBox="0 0 20.475 22.866">
  <path id="Subtraction_2" data-name="Subtraction 2" d="M-429.121-231.617a3.058,3.058,0,0,1-1.535-.414l-1-.582c.083-5.261.126-8.4.126-9.332.008-.056.015-.1.023-.145v-.414a.524.524,0,0,1,.524-.524h3.151a1.049,1.049,0,0,1,1.048,1.048,1.048,1.048,0,0,1-1.048,1.047h-2.274l.18.289a3.3,3.3,0,0,0,2.969,1.711,2.588,2.588,0,0,0,.541-.053,2.818,2.818,0,0,0,2.308-2.725,3.32,3.32,0,0,0-1.338-2.774c.008,0,.7-.162.787-1.506a2.438,2.438,0,0,0-.615-1.851,2.978,2.978,0,0,0-2.016-.766h-6.185v14.933l-4.331-2.517a3.1,3.1,0,0,1-1.535-2.681l.01-8.346a3.1,3.1,0,0,1,1.531-2.671l7.174-4.182a3.057,3.057,0,0,1,1.538-.414,3.056,3.056,0,0,1,1.534.413l7.151,4.157a3.1,3.1,0,0,1,1.536,2.681l-.01,8.346a3.1,3.1,0,0,1-1.532,2.671l-7.174,4.182a3.058,3.058,0,0,1-1.537.416Zm1.288-13.1h-3.151a.524.524,0,0,1-.524-.524v-1.048a.525.525,0,0,1,.524-.524h3.151a1.049,1.049,0,0,1,1.048,1.048,1.049,1.049,0,0,1-1.048,1.048Z" transform="translate(439.344 254.483)" fill="#3e8bff"/>
</svg>
