<svg xmlns="http://www.w3.org/2000/svg" width="56.398" height="43.68" viewBox="0 0 56.398 43.68">
  <g id="noun_Wallet_2291485" transform="translate(-10.914 -19.728)">
    <g id="Group_97" data-name="Group 97" transform="translate(59.466 38.733)">
      <path id="Path_142" data-name="Path 142" d="M85.336,47.513h-6.4a.721.721,0,0,1,0-1.443h6.4a.721.721,0,0,1,0,1.443Z" transform="translate(-78.212 -46.07)" fill="#fff"/>
    </g>
    <g id="Group_98" data-name="Group 98" transform="translate(53.103 42.877)">
      <path id="Path_143" data-name="Path 143" d="M72.311,57.652a2.918,2.918,0,1,1,2.918-2.918A2.923,2.923,0,0,1,72.311,57.652Zm0-4.394a1.475,1.475,0,1,0,1.475,1.475A1.477,1.477,0,0,0,72.311,53.257Z" transform="translate(-69.392 -51.815)" fill="#fff"/>
    </g>
    <g id="Group_99" data-name="Group 99" transform="translate(55.301 51.414)">
      <path id="Path_144" data-name="Path 144" d="M83.727,65.091H73.159a.721.721,0,0,1,0-1.443H83.727a.721.721,0,0,1,0,1.443Z" transform="translate(-72.438 -63.648)" fill="#fff"/>
    </g>
    <g id="Group_100" data-name="Group 100" transform="translate(48.96 38.733)">
      <path id="Path_145" data-name="Path 145" d="M70.711,60.195a7.062,7.062,0,1,1,0-14.125.721.721,0,0,1,0,1.443,5.619,5.619,0,1,0,0,11.239.721.721,0,0,1,0,1.443Z" transform="translate(-63.649 -46.07)" fill="#fff"/>
    </g>
    <g id="Group_101" data-name="Group 101" transform="translate(65.869 32.41)">
      <path id="Path_146" data-name="Path 146" d="M87.807,64.077a.721.721,0,0,1-.721-.721V38.027a.721.721,0,1,1,1.443,0V63.356A.721.721,0,0,1,87.807,64.077Z" transform="translate(-87.086 -37.306)" fill="#fff"/>
    </g>
    <g id="Group_102" data-name="Group 102" transform="translate(48.526 19.728)">
      <path id="Path_147" data-name="Path 147" d="M68,25.4a.721.721,0,0,1-.721-.721,3.509,3.509,0,0,0-3.506-3.506.721.721,0,0,1,0-1.443,4.954,4.954,0,0,1,4.948,4.948A.721.721,0,0,1,68,25.4Z" transform="translate(-63.047 -19.728)" fill="#fff"/>
    </g>
    <g id="Group_103" data-name="Group 103" transform="translate(15.141 19.728)">
      <path id="Path_148" data-name="Path 148" d="M50.879,21.171H17.494a.721.721,0,0,1,0-1.443H50.878a.721.721,0,0,1,0,1.443Z" transform="translate(-16.773 -19.728)" fill="#fff"/>
    </g>
    <g id="Group_104" data-name="Group 104" transform="translate(52.753 23.955)">
      <path id="Path_149" data-name="Path 149" d="M69.627,31.257a.721.721,0,0,1-.721-.721V26.308a.721.721,0,1,1,1.443,0v4.227A.721.721,0,0,1,69.627,31.257Z" transform="translate(-68.906 -25.587)" fill="#fff"/>
    </g>
    <g id="Group_105" data-name="Group 105" transform="translate(61.642 28.183)">
      <path id="Path_150" data-name="Path 150" d="M86.175,37.117a.721.721,0,0,1-.721-.721,3.509,3.509,0,0,0-3.506-3.506.721.721,0,1,1,0-1.443A4.954,4.954,0,0,1,86.9,36.4.721.721,0,0,1,86.175,37.117Z" transform="translate(-81.227 -31.447)" fill="#fff"/>
    </g>
    <g id="Group_106" data-name="Group 106" transform="translate(15.141 28.182)">
      <path id="Path_151" data-name="Path 151" d="M64,32.889h-46.5a.721.721,0,1,1,0-1.443h46.5a.721.721,0,0,1,0,1.443Z" transform="translate(-16.773 -31.446)" fill="#fff"/>
    </g>
    <g id="Group_107" data-name="Group 107" transform="translate(10.914 23.955)">
      <path id="Path_152" data-name="Path 152" d="M11.635,35.626a.721.721,0,0,1-.721-.721v-8.6a.721.721,0,1,1,1.443,0v8.6A.721.721,0,0,1,11.635,35.626Z" transform="translate(-10.914 -25.587)" fill="#fff"/>
    </g>
    <g id="Group_108" data-name="Group 108" transform="translate(16.44 23.955)">
      <path id="Path_153" data-name="Path 153" d="M42.847,27.03H19.294a.721.721,0,0,1,0-1.443H42.847a.721.721,0,0,1,0,1.443Z" transform="translate(-18.573 -25.587)" fill="#fff"/>
    </g>
    <g id="Group_109" data-name="Group 109" transform="translate(48.389 23.955)">
      <path id="Path_154" data-name="Path 154" d="M67.943,27.03H63.579a.721.721,0,1,1,0-1.443h4.363a.721.721,0,1,1,0,1.443Z" transform="translate(-62.858 -25.587)" fill="#fff"/>
    </g>
    <g id="Group_110" data-name="Group 110" transform="translate(10.914 19.728)">
      <path id="Path_155" data-name="Path 155" d="M15.862,29.625a4.948,4.948,0,1,1,0-9.9.721.721,0,0,1,0,1.443,3.506,3.506,0,1,0,0,7.011.721.721,0,0,1,0,1.443Z" transform="translate(-10.914 -19.728)" fill="#fff"/>
    </g>
    <g id="Group_111" data-name="Group 111" transform="translate(10.914 36.565)">
      <path id="Path_156" data-name="Path 156" d="M11.635,65.681a.721.721,0,0,1-.721-.721V43.786a.721.721,0,1,1,1.443,0V64.96A.721.721,0,0,1,11.635,65.681Z" transform="translate(-10.914 -43.065)" fill="#fff"/>
    </g>
    <g id="Group_112" data-name="Group 112" transform="translate(15.141 61.965)">
      <path id="Path_157" data-name="Path 157" d="M53.239,79.715H17.494a.721.721,0,0,1,0-1.443H53.239a.721.721,0,0,1,0,1.443Z" transform="translate(-16.773 -78.272)" fill="#fff"/>
    </g>
    <g id="Group_113" data-name="Group 113" transform="translate(10.914 57.738)">
      <path id="Path_158" data-name="Path 158" d="M15.862,78.083a4.954,4.954,0,0,1-4.948-4.948.721.721,0,1,1,1.443,0,3.509,3.509,0,0,0,3.506,3.506.721.721,0,0,1,0,1.443Z" transform="translate(-10.914 -72.413)" fill="#fff"/>
    </g>
    <g id="Group_114" data-name="Group 114" transform="translate(59.5 61.965)">
      <path id="Path_159" data-name="Path 159" d="M81.121,79.715H78.979a.721.721,0,1,1,0-1.443h2.142a.721.721,0,0,1,0,1.443Z" transform="translate(-78.258 -78.272)" fill="#fff"/>
    </g>
    <g id="Group_115" data-name="Group 115" transform="translate(61.642 57.738)">
      <path id="Path_160" data-name="Path 160" d="M81.948,78.083a.721.721,0,1,1,0-1.443,3.509,3.509,0,0,0,3.506-3.506.721.721,0,1,1,1.443,0A4.954,4.954,0,0,1,81.948,78.083Z" transform="translate(-81.227 -72.413)" fill="#fff"/>
    </g>
    <g id="Group_116" data-name="Group 116" transform="translate(16.551 52.102)">
      <path id="Path_161" data-name="Path 161" d="M23.675,70.271a4.954,4.954,0,0,1-4.948-4.948.721.721,0,1,1,1.443,0,3.509,3.509,0,0,0,3.506,3.506.721.721,0,1,1,0,1.443Z" transform="translate(-18.727 -64.601)" fill="#fff"/>
    </g>
    <g id="Group_117" data-name="Group 117" transform="translate(20.778 56.329)">
      <path id="Path_162" data-name="Path 162" d="M47.854,71.9H25.307a.721.721,0,0,1,0-1.443H47.854a.721.721,0,0,1,0,1.443Z" transform="translate(-24.586 -70.46)" fill="#fff"/>
    </g>
    <g id="Group_118" data-name="Group 118" transform="translate(16.551 46.557)">
      <path id="Path_163" data-name="Path 163" d="M19.448,63.9a.721.721,0,0,1-.721-.721V57.636a.721.721,0,0,1,1.443,0v5.545A.722.722,0,0,1,19.448,63.9Z" transform="translate(-18.727 -56.915)" fill="#fff"/>
    </g>
  </g>
</svg>
