<svg xmlns="http://www.w3.org/2000/svg" width="26.559" height="31.373" viewBox="0 0 26.559 31.373">
  <path id="Icon_awesome-paypal" data-name="Icon awesome-paypal" d="M7.707,20.5c-.242,1.328-1.2,7.52-1.487,9.27-.021.125-.069.173-.208.173H.851a.841.841,0,0,1-.837-.962L4.068,3.257A1.4,1.4,0,0,1,5.451,2.088c10.536,0,11.421-.256,14.113.789,4.158,1.612,4.538,5.5,3.044,9.706-1.487,4.331-5.015,6.192-9.692,6.247-3,.048-4.808-.484-5.209,1.674Zm17-9.955c-.125-.09-.173-.125-.208.09a16.191,16.191,0,0,1-.609,2.324C21.127,20.835,13.476,20.15,9.74,20.15a.7.7,0,0,0-.754.65C7.423,30.513,7.112,32.54,7.112,32.54a.737.737,0,0,0,.733.892h4.393a1.241,1.241,0,0,0,1.2-1.031c.048-.374-.076.422,1-6.316.318-1.522.989-1.363,2.027-1.363,4.912,0,8.744-1.992,9.886-7.769.45-2.407.318-4.939-1.646-6.406Z" transform="translate(-0.006 -2.06)" fill="#a2a2a2"/>
</svg>
