<svg xmlns="http://www.w3.org/2000/svg" width="23.164" height="20.268" viewBox="0 0 23.164 20.268">
  <path id="Icon_awesome-headphones" data-name="Icon awesome-headphones" d="M11.582,2.25A11.576,11.576,0,0,0,0,13.832V16A1.448,1.448,0,0,0,.8,17.3l.651.325a5.067,5.067,0,0,0,5.064,4.895H7.6a1.086,1.086,0,0,0,1.086-1.086V13.47A1.086,1.086,0,0,0,7.6,12.384H6.515A5.051,5.051,0,0,0,2.9,13.905v-.074a8.686,8.686,0,0,1,17.373,0v.074a5.051,5.051,0,0,0-3.619-1.521H15.563a1.086,1.086,0,0,0-1.086,1.086v7.962a1.086,1.086,0,0,0,1.086,1.086h1.086a5.067,5.067,0,0,0,5.064-4.895l.651-.325a1.448,1.448,0,0,0,.8-1.295V13.832A11.576,11.576,0,0,0,11.582,2.25Z" transform="translate(0 -2.25)" fill="#fff"/>
</svg>
