<svg xmlns="http://www.w3.org/2000/svg" width="23.163" height="16.538" viewBox="0 0 23.163 16.538">
  <g id="Icon_ionic-logo-game-controller-b" data-name="Icon ionic-logo-game-controller-b" transform="translate(-2.247 -6.757)">
    <path id="Path_462" data-name="Path 462" d="M9.14,14.386a1,1,0,1,0,1,1A1,1,0,0,0,9.14,14.386Z" transform="translate(-1.561 -2.02)" fill="#fff"/>
    <path id="Path_463" data-name="Path 463" d="M24.7,14.656c-1.1-4.575-2.254-7-4.575-7.693A4.611,4.611,0,0,0,18.8,6.757c-1.427,0-2.425.76-4.968.76s-3.541-.76-4.968-.76a4.56,4.56,0,0,0-1.329.207c-2.321.688-3.479,3.123-4.575,7.693s-.894,7.879.4,8.494A1.508,1.508,0,0,0,4,23.295c1.122,0,2.332-1.23,3.5-2.688C8.83,18.947,9.161,18.9,13.2,18.9H14.46c4.038,0,4.374.041,5.7,1.706,1.163,1.458,2.378,2.688,3.5,2.688a1.525,1.525,0,0,0,.646-.145C25.6,22.53,25.792,19.226,24.7,14.656Zm-17.117.76a2.047,2.047,0,1,1,2.027-2.047A2.041,2.041,0,0,1,7.584,15.416Zm8.938-1.008a1.039,1.039,0,1,1,1.039-1.039A1.039,1.039,0,0,1,16.523,14.408Zm2.27,2.27a1.037,1.037,0,1,1,1.039-1.034A1.038,1.038,0,0,1,18.792,16.678Zm0-4.539A1.039,1.039,0,1,1,19.831,11.1,1.039,1.039,0,0,1,18.792,12.139Zm2.27,2.27A1.039,1.039,0,1,1,22.1,13.369,1.039,1.039,0,0,1,21.062,14.408Z" fill="#fff"/>
  </g>
</svg>
