<svg xmlns="http://www.w3.org/2000/svg" width="20.74" height="20.745" viewBox="0 0 20.74 20.745">
  <path id="Icon_ionic-ios-settings" data-name="Icon ionic-ios-settings" d="M23.528,14.87a2.669,2.669,0,0,1,1.712-2.49A10.579,10.579,0,0,0,23.96,9.3a2.7,2.7,0,0,1-1.086.232A2.663,2.663,0,0,1,20.438,5.78,10.547,10.547,0,0,0,17.36,4.5a2.667,2.667,0,0,1-4.98,0A10.579,10.579,0,0,0,9.3,5.78,2.663,2.663,0,0,1,6.86,9.528,2.617,2.617,0,0,1,5.775,9.3,10.813,10.813,0,0,0,4.5,12.386a2.668,2.668,0,0,1,.005,4.98,10.579,10.579,0,0,0,1.28,3.084A2.664,2.664,0,0,1,9.3,23.965a10.64,10.64,0,0,0,3.084,1.28,2.662,2.662,0,0,1,4.969,0,10.579,10.579,0,0,0,3.084-1.28,2.667,2.667,0,0,1,3.516-3.516,10.64,10.64,0,0,0,1.28-3.084A2.682,2.682,0,0,1,23.528,14.87Zm-8.609,4.315a4.321,4.321,0,1,1,4.321-4.321A4.32,4.32,0,0,1,14.919,19.185Z" transform="translate(-4.5 -4.5)" fill="#fff"/>
</svg>
