<svg xmlns="http://www.w3.org/2000/svg" width="37.775" height="48.885" viewBox="0 0 37.775 48.885">
  <g id="noun_Security_2342885" transform="translate(-16 -6)">
    <g id="Group_96" data-name="Group 96" transform="translate(16 6)">
      <path id="Path_140" data-name="Path 140" d="M34.887,6c-6.684,0-11.7,5.5-11.7,12.186v3.159a1.111,1.111,0,1,0,2.222,0V18.186c0-5.6,4-9.964,9.478-9.964s9.478,4.363,9.478,9.964v3.159a1.111,1.111,0,1,0,2.222,0V18.186C46.588,11.5,41.571,6,34.887,6ZM17.007,24.991A1.111,1.111,0,0,0,16,26.1V53.774a1.111,1.111,0,0,0,1.111,1.111H52.664a1.111,1.111,0,0,0,1.111-1.111V35.928a1.111,1.111,0,1,0-2.222,0V52.663H18.222V27.213H51.553v4.5a1.111,1.111,0,1,0,2.222,0V26.1a1.111,1.111,0,0,0-1.111-1.111H17.111Q17.059,24.989,17.007,24.991Zm17.88,7.117a6.144,6.144,0,0,0-6.111,6.128,5.977,5.977,0,0,0,2.5,4.809v3.593a1.111,1.111,0,0,0,1.111,1.111h5a1.111,1.111,0,1,0,0-2.222H33.5V42.49a1.111,1.111,0,0,0-.556-.955A3.761,3.761,0,0,1,31,38.237a3.889,3.889,0,1,1,7.777,0,3.761,3.761,0,0,1-1.944,3.3,1.112,1.112,0,1,0,1.111,1.927A6.038,6.038,0,0,0,41,38.237,6.144,6.144,0,0,0,34.887,32.109Z" transform="translate(-16 -6)" fill="#fff"/>
    </g>
  </g>
</svg>
