<svg xmlns="http://www.w3.org/2000/svg" width="51.17" height="51.17" viewBox="0 0 51.17 51.17">
  <g id="noun_Settings_1057553" transform="translate(-10 -10.2)">
    <path id="Path_141" data-name="Path 141" d="M55.573,39.783a19.926,19.926,0,0,1-3.065,7.329l3.331,3.331-5.6,5.6-3.331-3.331a19.926,19.926,0,0,1-7.329,3.065v4.8h-8v-4.8a19.926,19.926,0,0,1-7.329-3.065L20.927,56.04l-5.6-5.6,3.331-3.331A19.926,19.926,0,0,1,15.6,39.783H10.8v-8h4.8a19.926,19.926,0,0,1,3.065-7.329l-3.331-3.331,5.6-5.6,3.331,3.331A19.926,19.926,0,0,1,31.588,15.8V11h8v4.8a19.926,19.926,0,0,1,7.329,3.065l3.331-3.331L52.508,17.8l3.331,3.331-3.331,3.331a19.926,19.926,0,0,1,3.065,7.329h4.8v8ZM39.316,26.99a8.942,8.942,0,0,0-3.731-.8,9.528,9.528,0,1,0,7.729,3.864" fill="none" stroke="#fff" stroke-linecap="round" stroke-linejoin="round" stroke-miterlimit="10" stroke-width="1.6"/>
  </g>
</svg>
