<svg id="noun_cart_2944035" xmlns="http://www.w3.org/2000/svg" width="18.871" height="16.956" viewBox="0 0 18.871 16.956">
  <g id="Group_405" data-name="Group 405" transform="translate(0 0)">
    <path id="Path_475" data-name="Path 475" d="M.49.98A.491.491,0,0,1,0,.49.463.463,0,0,1,.49,0H2.94a.521.521,0,0,1,.441.392l.588,2.891H17.544A1.309,1.309,0,0,1,18.818,4.95L17.593,9.164a2.573,2.573,0,0,1-2.5,1.862H5.538l.1.539a1.626,1.626,0,0,0,1.617,1.274h8.674a.527.527,0,0,1,.49.49.491.491,0,0,1-.49.49H7.253A2.491,2.491,0,0,1,4.7,11.761L2.5.98ZM4.165,4.263l1.176,5.783h9.752a1.633,1.633,0,0,0,1.568-1.127L17.887,4.7a.366.366,0,0,0-.343-.441Z" transform="translate(0 0)" fill="#fff"/>
    <path id="Path_476" data-name="Path 476" d="M123.127,300A1.127,1.127,0,1,1,122,301.127,1.109,1.109,0,0,1,123.127,300Z" transform="translate(-116.021 -285.298)" fill="#fff" fill-rule="evenodd"/>
    <path id="Path_477" data-name="Path 477" d="M267.127,300A1.127,1.127,0,1,1,266,301.127,1.151,1.151,0,0,1,267.127,300Z" transform="translate(-252.965 -285.298)" fill="#fff" fill-rule="evenodd"/>
  </g>
</svg>
