<svg xmlns="http://www.w3.org/2000/svg" width="19.965" height="16.215" viewBox="0 0 19.965 16.215">
  <path id="Icon_awesome-twitter" data-name="Icon awesome-twitter" d="M17.912,7.422c.013.177.013.355.013.532A11.562,11.562,0,0,1,6.283,19.6,11.563,11.563,0,0,1,0,17.759a8.465,8.465,0,0,0,.988.051,8.2,8.2,0,0,0,5.08-1.748,4.1,4.1,0,0,1-3.826-2.838,5.16,5.16,0,0,0,.773.063,4.328,4.328,0,0,0,1.077-.139A4.092,4.092,0,0,1,.811,9.132V9.081A4.121,4.121,0,0,0,2.66,9.6,4.1,4.1,0,0,1,1.393,4.128,11.631,11.631,0,0,0,9.83,8.41a4.619,4.619,0,0,1-.1-.937,4.1,4.1,0,0,1,7.081-2.8,8.056,8.056,0,0,0,2.6-.988,4.081,4.081,0,0,1-1.8,2.255,8.2,8.2,0,0,0,2.356-.633,8.8,8.8,0,0,1-2.052,2.116Z" transform="translate(0 -3.381)" fill="#fff"/>
</svg>
