<svg xmlns="http://www.w3.org/2000/svg" width="41.639" height="49.57" viewBox="0 0 41.639 49.57">
  <g id="users" transform="translate(-1 -1)">
    <g id="Group_94" data-name="Group 94" transform="translate(1 1)">
      <path id="Path_129" data-name="Path 129" d="M21.88,28.759a13.9,13.9,0,0,0,13.88-13.88V3.974A2.974,2.974,0,0,0,32.785,1H21.88a13.88,13.88,0,1,0,0,27.759Zm0-25.777H32.785a.991.991,0,0,1,.991.991V14.88a11.9,11.9,0,1,1-11.9-11.9Z" transform="translate(-1.06 -1)" fill="#fff"/>
      <path id="Path_130" data-name="Path 130" d="M23.8,31H19.837A18.858,18.858,0,0,0,1,49.837a.991.991,0,0,0,.991.991H41.648a.991.991,0,0,0,.991-.991A18.858,18.858,0,0,0,23.8,31ZM3.012,48.845A16.877,16.877,0,0,1,19.837,32.983H23.8A16.877,16.877,0,0,1,40.627,48.845Z" transform="translate(-1 -1.258)" fill="#fff"/>
      <path id="Path_131" data-name="Path 131" d="M21.943,24.966a9.932,9.932,0,0,0,6.225-2.2.991.991,0,1,0-1.247-1.542,7.913,7.913,0,0,1-9.956,0,.991.991,0,1,0-1.247,1.542,9.932,9.932,0,0,0,6.225,2.2Z" transform="translate(-1.123 -1.172)" fill="#fff"/>
    </g>
  </g>
</svg>
